<?xml version="1.0" encoding="utf-8"?>
<!-- Generator: Adobe Illustrator 26.0.0, SVG Export Plug-In . SVG Version: 6.00 Build 0)  -->
<svg version="1.1" xmlns="http://www.w3.org/2000/svg" xmlns:xlink="http://www.w3.org/1999/xlink" x="0px" y="0px"
	 viewBox="0 0 100 100" style="enable-background:new 0 0 100 100;" xml:space="preserve">
<style type="text/css">
	.st0{display:none;}
	.st1{display:inline;fill:#FFFFFF;}
	.st2{fill:url(#SVGID_1_);}
	.st3{fill:url(#SVGID_00000103950522965879803790000003526951902217422211_);}
	.st4{fill:url(#SVGID_00000058554974158586394270000012205012878889916564_);}
	.st5{fill:url(#SVGID_00000090275420216910028250000010225948254954947999_);}
	.st6{fill:url(#SVGID_00000003091752172852178290000001004785322123545251_);}
	.st7{fill:url(#SVGID_00000043416430615817860830000016557083346912380042_);}
	.st8{fill:url(#SVGID_00000080194271464033396970000017842603249436065442_);}
	.st9{fill:url(#SVGID_00000153686789166177461310000012722777441685899438_);}
	.st10{fill:url(#SVGID_00000163057819843783760600000016173378090854584204_);}
	.st11{fill:url(#SVGID_00000181810035128561310260000015516560740607134603_);}
	.st12{fill:url(#SVGID_00000089573610022571147250000002195596037486067083_);}
	.st13{fill:url(#SVGID_00000079476286634221744790000016876590290054375607_);}
	.st14{fill:url(#SVGID_00000174577979402747800370000012943179507897317813_);}
	.st15{fill:url(#SVGID_00000085218955994664250750000007212982060180821137_);}
	.st16{fill:url(#SVGID_00000162343044775731372850000002049782217803586950_);}
	.st17{fill:url(#SVGID_00000094596641291633976200000002372303321876656792_);}
	.st18{fill:url(#SVGID_00000137820624326708810880000002943392310303139505_);}
	.st19{fill:url(#SVGID_00000072256937792042654540000003863504395495234730_);}
	.st20{fill:url(#SVGID_00000046340071995338803550000018225651813857290667_);}
	.st21{fill:url(#SVGID_00000163065237849295376480000008108433634274491816_);}
	.st22{fill:url(#SVGID_00000121993041143901127340000009254195666020721321_);}
	.st23{fill:url(#SVGID_00000013886360329766339670000016428137027786069427_);}
	.st24{fill:url(#SVGID_00000093142177543768091540000015847392328091742355_);}
	.st25{fill:url(#SVGID_00000018940655186718222240000011960639122622242209_);}
	.st26{fill:url(#SVGID_00000093890632004850395680000006196068741319330702_);}
	.st27{fill:url(#SVGID_00000155828288411698266790000018093262551462600126_);}
	.st28{fill:url(#SVGID_00000090287062268590980230000002627950688005324471_);}
	.st29{fill:url(#SVGID_00000016057095399772406920000014509785595469817244_);}
	.st30{fill:url(#SVGID_00000072254346364803198490000014264855523176219565_);}
	.st31{fill:url(#SVGID_00000072976486157321157990000009830688992003364261_);}
	.st32{fill:url(#SVGID_00000159451961777801021690000014337682225363127212_);}
	.st33{fill:url(#SVGID_00000114069581450044194250000002061124471464174007_);}
	.st34{fill:url(#SVGID_00000041294569805650048980000014857251481867331746_);}
	.st35{fill:url(#SVGID_00000122701312192628944870000014835515004736776114_);}
	.st36{fill:url(#SVGID_00000147913710811069179860000004753061706891613321_);}
	.st37{fill:url(#SVGID_00000018204118739296315660000004372854574521092006_);}
	.st38{fill:url(#SVGID_00000059994786546926080780000002318084672188846005_);}
	.st39{fill:url(#SVGID_00000165215878597836979810000018407863641571432075_);}
	.st40{fill:url(#SVGID_00000080193909268167784060000000891902199656809869_);}
	.st41{fill:url(#SVGID_00000156586292136794832670000000855730229979779995_);}
	.st42{fill:url(#SVGID_00000169527392267254127590000015826661609391988872_);}
	.st43{fill:url(#SVGID_00000071526765729376534140000016807164204570225573_);}
	.st44{fill:url(#SVGID_00000053535012937317968920000008063705361533947577_);}
	.st45{fill:url(#SVGID_00000097499346214506197180000006279291780529585587_);}
	.st46{fill:url(#SVGID_00000140729075025525604190000003894780659989867168_);}
	.st47{fill:url(#SVGID_00000103223130211024891820000003083505375679363476_);}
	.st48{fill:url(#SVGID_00000074412722321391246290000010082330900610276751_);}
	.st49{fill:url(#SVGID_00000017515505636134430780000009888122361050191289_);}
	.st50{fill:url(#SVGID_00000080889712081390229420000016319651872852764857_);}
	.st51{fill:url(#SVGID_00000060019830562007421110000008454008667445848724_);}
	.st52{fill:url(#SVGID_00000093141619872419100540000006700408256097905299_);}
	.st53{fill:url(#SVGID_00000175280923780937159750000001189237072644219552_);}
	.st54{fill:url(#SVGID_00000013873046181464307870000010575136519157221288_);}
	.st55{fill:url(#SVGID_00000134208743334379326640000011027191576595090863_);}
	.st56{fill:url(#SVGID_00000103260473295673432840000015658770969188405946_);}
	.st57{fill:url(#SVGID_00000117636894093600755290000004161661598665661832_);}
	.st58{fill:url(#SVGID_00000000214705319639905610000005139354307829996165_);}
	.st59{fill:url(#SVGID_00000068653441679171134210000007605400165045543333_);}
	.st60{fill:url(#SVGID_00000059297685335591783470000000374509938652330413_);}
	.st61{fill:url(#SVGID_00000162310706758830945440000005029260986899487375_);}
	.st62{fill:url(#SVGID_00000004510733895396764330000013519582374400830600_);}
	.st63{fill:url(#SVGID_00000174603883430202125170000015789671199350720191_);}
	.st64{fill:url(#SVGID_00000173138641489221992570000014623409054066034850_);}
	.st65{fill:url(#SVGID_00000177461976149106850900000007677341590426639547_);}
	.st66{fill:url(#SVGID_00000172440418639053664200000004020027306629577112_);}
	.st67{fill:url(#SVGID_00000111914301764778918380000012065434826669678514_);}
	.st68{fill:url(#SVGID_00000079483617652182212010000005022139783153957525_);}
	.st69{fill:url(#SVGID_00000154418991502159651140000003911696974302842513_);}
	.st70{fill:url(#SVGID_00000007398988329624877940000008357172976367749250_);}
	.st71{fill:url(#SVGID_00000050655338058398819250000014660693356396991927_);}
	.st72{fill:url(#SVGID_00000031928374875458342660000005455772583061933233_);}
	.st73{fill:url(#SVGID_00000108997249706478837880000000878995592796711590_);}
	.st74{fill:url(#SVGID_00000137849429422495533080000001361896029485095064_);}
	.st75{fill:url(#SVGID_00000093150139184982142860000005903765746806982830_);}
	.st76{fill:url(#SVGID_00000106862327479319684320000008392598085092649607_);}
	.st77{fill:url(#SVGID_00000001636826404546882070000010138498061133689022_);}
	.st78{fill:url(#SVGID_00000172416277024389803890000016944500428252015514_);}
	.st79{fill:url(#SVGID_00000087377224304822525720000012932296896914190010_);}
	.st80{fill:url(#SVGID_00000044141052748245708030000017572690487338293419_);}
	.st81{fill:url(#SVGID_00000005227579542802938530000000654339270477037735_);}
	.st82{fill:url(#SVGID_00000053514880961811812650000005075676003573233045_);}
	.st83{fill:url(#SVGID_00000161597794472566468360000005350450154055224459_);}
	.st84{fill:url(#SVGID_00000093868853850663878300000016594482842971731853_);}
	.st85{fill:url(#SVGID_00000161625836631058930200000001588469695988881592_);}
	.st86{fill:url(#SVGID_00000001637869202066362880000010251721945059162793_);}
	.st87{fill:url(#SVGID_00000034068130135061400860000001846620456167339392_);}
	.st88{fill:url(#SVGID_00000121988391147537577880000011036139207045631675_);}
	.st89{fill:url(#SVGID_00000158028243604644363080000011342912452342558117_);}
	.st90{fill:url(#SVGID_00000120558379419113831060000010162901099727794362_);}
	.st91{fill:url(#SVGID_00000029745835512230676040000008998273197832172172_);}
	.st92{fill:url(#SVGID_00000061454594329587044080000005362601031228287369_);}
	.st93{fill:url(#SVGID_00000124883985925961216220000007001553001016125372_);}
	.st94{fill:url(#SVGID_00000026154326268660068020000008706873160836618654_);}
	.st95{fill:url(#SVGID_00000077291335420579950520000015275035803515271569_);}
	.st96{fill:url(#SVGID_00000152252007784465021660000018374602890133302941_);}
</style>
<g id="BG" class="st0">
	<rect x="-450" y="-450" class="st1" width="1000" height="1000"/>
	<rect x="-450" y="-450" class="st1" width="1000" height="1000"/>
</g>
<g id="Object">
	<g>
		<g>
			<linearGradient id="SVGID_1_" gradientUnits="userSpaceOnUse" x1="36.9187" y1="115.1936" x2="38.2804" y2="9.8319">
				<stop  offset="0" style="stop-color:#005175"/>
				<stop  offset="1" style="stop-color:#6AC3CE"/>
			</linearGradient>
			<path class="st2" d="M37.58,69.21L37.58,69.21c-0.02-0.1-0.07-0.16-0.13-0.19c0.04,0.09,0.08,0.17,0.12,0.26
				C37.57,69.26,37.58,69.24,37.58,69.21z"/>
		</g>
		<g>
			
				<linearGradient id="SVGID_00000036943869810195691830000003121489113058220972_" gradientUnits="userSpaceOnUse" x1="26.1759" y1="115.0548" x2="27.5376" y2="9.6931">
				<stop  offset="0" style="stop-color:#005175"/>
				<stop  offset="1" style="stop-color:#6AC3CE"/>
			</linearGradient>
			<path style="fill:url(#SVGID_00000036943869810195691830000003121489113058220972_);" d="M24.15,52.03
				c3.43,6.72,7.15,13.23,11.05,19.68c0.74-0.02,0.74,0.33,0.63,0.94c-0.03,0.01-0.05,0.01-0.08,0.01c0.24,0.43,0.48,0.86,0.72,1.28
				c0.06-0.08,0.12-0.16,0.17-0.24c0-0.17,0-0.34-0.01-0.51c0.18,0.06,0.32,0.16,0.41,0.31c0.03,0.05,0.06,0.11,0.08,0.17
				c-0.08,0.33-0.16,0.65-0.25,0.98c0.9,1.53,1.73,3.09,2.71,4.57c0.34-0.06,0.68-0.26,1.02-0.23c-1.2-2.13-2.59-4.15-3.73-6.31
				c-2.18-4.16-4.49-8.24-6.47-12.51c-0.11-0.04-0.21-0.08-0.32-0.12c-0.09-0.24-0.18-0.48-0.28-0.72c0.09,0.24,0.18,0.48,0.28,0.72
				c0.11,0.04,0.21,0.08,0.32,0.12c-0.29-0.62-2.25-5.54-2-5.61c0.06-0.02,8.07,16.58,8.51,17.45c0.12-0.3,0.41-0.41,0.69-0.54
				c0.01-0.19,0.1-0.34,0.27-0.46c0.5-0.02,0.95,1.69,0.97,1.91c-0.17,0-0.34,0.01-0.5,0.01c-0.08-0.08-0.16-0.16-0.24-0.24
				c-0.28,0-0.57-0.01-0.85-0.01c1.1,2.12,2.42,4.13,3.6,6.21c0.04-0.01,0.31-0.17,0.33-0.18c0.06-0.01,0.09-0.06,0.08-0.12
				c0.16-0.12,0.26-0.22,0.44-0.34c-1.38-2.97-2.77-5.96-4.15-8.98c-0.07,0.25-0.38,0.25-0.35-0.08c0.02-0.17,0.13-0.22,0.23-0.18
				c-5.34-11.66-10.52-23.66-14.19-35.8c0.05,0.59-1.91,0.97-0.61,0.03c0.06-0.01,0.08-0.04,0.08-0.1c0.03-0.05,0.34-0.4,0.45-0.19
				c-0.09-0.26-0.19-0.52-0.29-0.78c-1.29,0.54-2.34,0.99-3.39,1.94c-0.28,0.25-2,2.61-2.54,2.29c-0.94-0.56,5.03-4.25,5.79-4.62
				c-0.1-0.26-0.19-0.52-0.29-0.77c-0.11-0.02-0.29-0.25-0.12-0.31c-0.1-0.29-2.91-8.11-2.23-8.27c0.22-0.05,2.52,8.22,2.76,8.52
				c0,0-0.01,0.01-0.01,0.01c0.08,0.22,0.16,0.45,0.24,0.68c0.03-0.01,0.07-0.01,0.1-0.01c-1.07-3.45-1.79-6.93-2.49-10.47
				c-0.13,0.47-0.1,0.78-0.1,0.78c-3.44,0.63-8.14,2.04-8.36,6.21c1.49,3.79,3.75,7.28,5.59,10.9
				C19.99,43.36,21.96,47.75,24.15,52.03z M27.48,52.75c-0.25,0.55-0.76,0.8-1.11,1.1C24.76,53.54,27.87,51.91,27.48,52.75z
				 M25.2,45.43c0.01-0.03,0.72,1.09-0.22,0.76C23.79,45.77,25.22,45.31,25.2,45.43z M22.05,35.53c-0.01-0.05,1.05,0.28,0.14,0.63
				C21.46,36.43,22.03,35.47,22.05,35.53z M20.18,30.64c-0.03,0.02,1.04-0.71,0.95-0.09c-0.22,0.36-0.54,0.45-0.97,0.25
				c0.31,0.39,0.4,0.8,0.28,1.23c-0.7,0.51-0.98-1.08-0.97-1.19C19.66,30.65,19.9,30.59,20.18,30.64z M18.16,29.99
				c0.21,0.07,0.21,0.17,0,0.31C17.93,30.25,17.93,30.14,18.16,29.99z M16.36,30.62c-0.27-0.23-0.26-0.35,0.01-0.39
				C16.7,30.44,16.7,30.57,16.36,30.62z"/>
		</g>
		<g>
			
				<linearGradient id="SVGID_00000093860578255929549960000015826001897128212159_" gradientUnits="userSpaceOnUse" x1="37.7478" y1="115.2044" x2="39.1095" y2="9.8426">
				<stop  offset="0" style="stop-color:#005175"/>
				<stop  offset="1" style="stop-color:#6AC3CE"/>
			</linearGradient>
			<path style="fill:url(#SVGID_00000093860578255929549960000015826001897128212159_);" d="M39.64,86.55
				c-2.16-0.55-4.63-1.19-6.33-2.7c0.04,0.1,0.07,0.19,0.1,0.29l0,0c-0.03-0.1-0.07-0.19-0.1-0.29c-0.15-0.13-0.3-0.28-0.42-0.44
				l-1.45-0.27c-0.88,0.98,0.54,4.25,1.08,5.39c1.93,1.14,4.24,1.7,6.47,1.71c2.01,0.01,4.09-1.02,6.07-0.36
				c-1.68-1.46-2.84-2.39-4.94-3.17C40.01,86.96,39.4,86.81,39.64,86.55z M31.42,83.68c-0.29-0.11,0.03-0.28,0.07-0.32l0,0
				C31.41,83.27,32.08,83.92,31.42,83.68z M37.92,88.72c0.23,0.27-0.08,0.92-0.34,1.01c-0.36,0.13-0.31-1.02-0.06-1.15
				c0.05,0.01-5.12-1.45-4.5-2.34c0.07-0.1,0.58,0.23,0.63,0.26c0.44,0.22,7.43,2.7,9.38,2.72C41.74,89.34,38.37,88.85,37.92,88.72z
				 M42.04,88.1c-0.1,0.3-7.28-0.82-6.75-1.73c-0.05,0.08,2.97,0.81,3.03,0.8l0.01-0.01c0.19-0.01,0.31,0.06,0.37,0.21
				C39.12,87.46,42.18,87.7,42.04,88.1z"/>
		</g>
		<g>
			
				<linearGradient id="SVGID_00000016766322747550751910000017035049759247182242_" gradientUnits="userSpaceOnUse" x1="37.8185" y1="115.2053" x2="39.1802" y2="9.8436">
				<stop  offset="0" style="stop-color:#005175"/>
				<stop  offset="1" style="stop-color:#6AC3CE"/>
			</linearGradient>
			<path style="fill:url(#SVGID_00000016766322747550751910000017035049759247182242_);" d="M38.33,87.25
				c0-0.03-0.01-0.05-0.01-0.08c-0.1,0.01-0.19,0.02-0.29,0.03C38.13,87.21,38.23,87.22,38.33,87.25z"/>
		</g>
		<g>
			
				<linearGradient id="SVGID_00000163751431257003300740000001435509451367070364_" gradientUnits="userSpaceOnUse" x1="36.8263" y1="115.1924" x2="38.188" y2="9.8307">
				<stop  offset="0" style="stop-color:#005175"/>
				<stop  offset="1" style="stop-color:#6AC3CE"/>
			</linearGradient>
			<path style="fill:url(#SVGID_00000163751431257003300740000001435509451367070364_);" d="M33.98,79.16
				c-0.49-0.46-1.01-0.9-1.51-1.35c-0.11,1.18-0.38,3.78-0.66,4.66c0.23-0.22,0.49-0.21,0.62,0.11c0.62-0.09,0.75,0.09,0.74,0.66
				c2.84,2.1,6.29,2.72,9.45,4.18c-0.25-0.29-0.5-0.59-0.76-0.88c-0.86-0.37-8.36-3.7-8.13-4.18c0.06-0.13,6.48,2.84,7.27,3.29
				C38.71,83.44,36.31,81.33,33.98,79.16z M32.73,79.95c0.06-0.04,0.13-0.06,0.19-0.09c0,0,0,0,0-0.01c0,0,0,0,0,0v0c0,0,0,0-0.01,0
				C32.7,80.32,32.78,79.92,32.73,79.95z M33.21,80.25c-0.03-0.02-0.04,0.02-0.07-0.02c-0.01-0.01-0.03-0.01-0.04-0.02
				c-0.12,0.03,0-0.04-0.05-0.04c-0.02-0.03-0.04,0-0.06,0.02c-0.01-0.01-0.01-0.01-0.02-0.01c-0.01,0-0.11,0.06-0.16,0.02
				c-0.07-0.02,0.1-0.34,0.16-0.33c0.12,0.12,0.1-0.03,0.2,0.01c0.05-0.01,0.08-0.02,0.17-0.04c0.13,0.03,0.05,0.45-0.11,0.47
				C33.16,80.31,33.24,80.31,33.21,80.25z M34.46,81.93c-0.05,0.05-0.11,0.1-0.16,0.16c-0.25-0.19-0.38-0.29-0.42-0.4
				c-0.11-0.04-0.66-0.15-0.58-0.36c0.07-0.19,0.51-0.07,0.64-0.01c0.11-0.26,0.25-0.51,0.42-0.75c0.29,0.04,0.41,0.23,0.46,0.5
				c0.07,0.25,0.04,0.45-0.11,0.6c0.57,0.17,5.07,1.95,4.43,2.75C39.16,84.38,35.17,82.05,34.46,81.93z"/>
		</g>
		<g>
			
				<linearGradient id="SVGID_00000097469734605763077170000000204325203979230617_" gradientUnits="userSpaceOnUse" x1="39.5695" y1="115.2279" x2="40.9312" y2="9.8662">
				<stop  offset="0" style="stop-color:#005175"/>
				<stop  offset="1" style="stop-color:#6AC3CE"/>
			</linearGradient>
			<path style="fill:url(#SVGID_00000097469734605763077170000000204325203979230617_);" d="M41.04,25.12
				c0.21-0.01,0.41,0.01,0.62-0.01c-0.06-4.66-0.74-9.32-0.38-13.99c-0.38,0.3-0.56,0.51-0.56,0.51s-0.27,0.03-0.72,0.08
				c0.05,0.55,0.11,1.09,0.17,1.64C40.53,17.26,40.75,21.2,41.04,25.12z"/>
		</g>
		<g>
			
				<linearGradient id="SVGID_00000077301164139625131500000008181446617597633187_" gradientUnits="userSpaceOnUse" x1="46.6027" y1="115.3188" x2="47.9644" y2="9.9571">
				<stop  offset="0" style="stop-color:#005175"/>
				<stop  offset="1" style="stop-color:#6AC3CE"/>
			</linearGradient>
			<path style="fill:url(#SVGID_00000077301164139625131500000008181446617597633187_);" d="M47.24,79.34
				c-0.11-0.14-0.22-0.26-0.35-0.34c0.05,0.31,0.1,0.62,0.15,0.93C47.2,79.77,47.25,79.57,47.24,79.34z"/>
		</g>
		<g>
			
				<linearGradient id="SVGID_00000109748439054176772230000006789098248279948955_" gradientUnits="userSpaceOnUse" x1="47.5598" y1="115.3312" x2="48.9215" y2="9.9695">
				<stop  offset="0" style="stop-color:#005175"/>
				<stop  offset="1" style="stop-color:#6AC3CE"/>
			</linearGradient>
			<path style="fill:url(#SVGID_00000109748439054176772230000006789098248279948955_);" d="M48.37,87.87
				c-0.04-0.01-0.18-10.05-0.21-11.08c-0.5-0.09-1.1,0.19-1.57,0.38c0.1,0.61,0.21,1.22,0.31,1.83c0.25,0.28,0.53,0.51,0.85,0.7
				c0.01-0.09-0.17,1.36-0.61,0.87c0.03,0.28,0.06,0.56,0.09,0.84c0.15-0.04,0.49,0.03,0.49,0.24c0,0.27-0.32,0.17-0.46,0.13
				c0.33,3.26,0.86,6.38,1.96,9.47c0.01,0,0.01,0,0.02,0c0.03-0.17,0.07-0.34,0.11-0.51c-0.41-2.02-0.55-4.16-0.64-6.22
				C48.69,84.75,48.44,87.89,48.37,87.87z M48.03,82.61c-0.06-0.06-0.06-0.12,0.02-0.16c0.02,0.03,0.03,0.06,0.05,0.09
				C48.08,82.57,48.05,82.59,48.03,82.61z"/>
		</g>
		<g>
			
				<linearGradient id="SVGID_00000151540494640344532470000005785713534518407306_" gradientUnits="userSpaceOnUse" x1="48.0967" y1="115.3381" x2="49.4584" y2="9.9764">
				<stop  offset="0" style="stop-color:#005175"/>
				<stop  offset="1" style="stop-color:#6AC3CE"/>
			</linearGradient>
			<path style="fill:url(#SVGID_00000151540494640344532470000005785713534518407306_);" d="M48.77,76.75
				c-0.12,0.01-0.24,0.03-0.35,0.03c0.03,0.86,0.12,1.72,0.19,2.57C48.66,78.48,48.71,77.61,48.77,76.75z"/>
		</g>
		<g>
			
				<linearGradient id="SVGID_00000001663780534275622120000000700492829344705206_" gradientUnits="userSpaceOnUse" x1="31.2703" y1="115.1206" x2="32.632" y2="9.7589">
				<stop  offset="0" style="stop-color:#005175"/>
				<stop  offset="1" style="stop-color:#6AC3CE"/>
			</linearGradient>
			<path style="fill:url(#SVGID_00000001663780534275622120000000700492829344705206_);" d="M21.15,21.06
				c0.38-0.06,2.95,9.59,3.24,10.43c0.35,0.02,0.68,0.25,0.16,0.42c0.41,0.97,5.87,14.56,5.53,14.68c-0.36,0.14-3.95-9.38-4.07-9.7
				c0.94,2.65,1.99,5.26,2.83,7.94c0.02-0.01,0.04-0.02,0.07-0.02c0.42,0.12,0.46,0.34,0.13,0.66c1.86,5.88,4.63,11.4,6.69,17.2
				c2.15,6.06,4.8,12.3,7.61,18.09c-2-4.98-3.67-10.09-5.47-15.14c-0.2,0.09-0.41,0.14-0.62,0.14c0.18-0.12,0.37-0.2,0.59-0.24
				c-0.17-0.48-5.11-15.27-4.51-15.38c0.08-0.02,2.71,7.9,5.52,16.18c0.04-0.03,0.09-0.05,0.13-0.08h0l0,0
				c0.1-0.29,0.3-0.31,0.53-0.24c-0.07-0.27-0.14-0.53-0.2-0.8c-0.25,0.01-0.32-0.55-0.33-0.67c0.05-0.04,0.09-0.09,0.12-0.14
				c-0.07-0.28-0.15-0.56-0.22-0.84c-0.42-1.54-0.91-3.07-1.2-4.65c-0.72,0.25-0.87-1.21-0.23-1.26c-0.63-3.67-1.59-7.41-2.49-11.04
				c-0.45,0.19-1.24-0.01-1.67-0.05c-0.05,1.21,1.74,3.69-0.63,2.18c-1.54-0.98-1.18-2.29,0.69-2.52c0.39-0.37,0.84-0.65,1.33-0.83
				c-0.7-2.96-1.41-5.95-2.04-8.93c-0.73-0.15-1.41-1.27-0.31-1.4c-0.12-0.45-0.95-4.38-0.52-4.45c0.22-0.03,0.84,3.77,0.96,4.26
				c0.07-0.05,0.14-0.1,0.21-0.15c-0.45-2.21-0.67-4.47-1.12-6.67c-1.24,0.22-2.28,0.3-3.4,0.93c-0.27,0.15-2.43,2.27-2.97,1.77
				c-0.75-0.69,5.46-3.12,6.27-3.15c-0.83-3.88-1.77-7.73-2.81-11.55c-0.1,0.2-0.14,0.32-0.14,0.32s-0.03,0.01-0.09,0.02
				c0.2,1.09,2.87,10.95,2.14,11.08c-0.1,0.02-2.25-9.83-2.49-11c-0.76,0.18-2.42,0.62-4.25,1.47c0.53,1.41-1.43,3.14-1.9,1.09
				c-0.7,0.55-1.09,1.14-1.31,1.63c0.76,3.08,1.5,6.16,2.7,9.11C23.52,29.57,20.79,21.12,21.15,21.06z M27.9,30.9
				c0.3-0.58,3.18-1.41,2.97-0.96C30.73,30.24,27.54,31.6,27.9,30.9z M28.37,24.68c0.41,0.35,0.4,0.57-0.04,0.68
				C28.07,25.1,28.08,24.88,28.37,24.68z M27.37,17.12l-0.03,0.19l-0.14-0.13L27.37,17.12z"/>
		</g>
		<g>
			
				<linearGradient id="SVGID_00000028323996574156192510000007049665295498877336_" gradientUnits="userSpaceOnUse" x1="38.1818" y1="115.21" x2="39.3423" y2="25.4159">
				<stop  offset="0" style="stop-color:#005175"/>
				<stop  offset="1" style="stop-color:#6AC3CE"/>
			</linearGradient>
			<path style="fill:url(#SVGID_00000028323996574156192510000007049665295498877336_);" d="M38.82,66.33
				C38.82,66.33,38.82,66.33,38.82,66.33c-0.01,0-0.01,0.01-0.02,0.01C38.81,66.34,38.82,66.33,38.82,66.33z"/>
		</g>
		<g>
			
				<linearGradient id="SVGID_00000181087247511306544500000017736679101567431323_" gradientUnits="userSpaceOnUse" x1="42.3564" y1="115.2639" x2="43.7181" y2="9.9022">
				<stop  offset="0" style="stop-color:#005175"/>
				<stop  offset="1" style="stop-color:#6AC3CE"/>
			</linearGradient>
			<path style="fill:url(#SVGID_00000181087247511306544500000017736679101567431323_);" d="M45.5,84.89
				c0.42,0.84,0.87,1.66,1.38,2.45c-1.17-3.01-2.54-6.01-3.56-9.06c-0.14-0.08-0.2-0.17-0.1-0.31c-1.19-3.84-2.62-7.7-3.63-11.58
				c-0.22,0.02-0.42-0.03-0.62-0.13c-0.05,0.02-0.09,0.05-0.14,0.07c2.72,8.03,5.61,16.41,6.49,18.18
				C45.47,84.28,45.81,84.75,45.5,84.89z"/>
		</g>
		<g>
			
				<linearGradient id="SVGID_00000166654665009699208110000008715789612621429386_" gradientUnits="userSpaceOnUse" x1="32.9843" y1="115.1428" x2="34.346" y2="9.7811">
				<stop  offset="0" style="stop-color:#005175"/>
				<stop  offset="1" style="stop-color:#6AC3CE"/>
			</linearGradient>
			<path style="fill:url(#SVGID_00000166654665009699208110000008715789612621429386_);" d="M35.07,45.5
				c-0.49-3.41-1.35-6.85-2.02-10.24c-0.08,0-0.15,0-0.23-0.01c0.76,3.38,1.29,6.81,2.1,10.18C34.98,45.44,35.03,45.46,35.07,45.5z"
				/>
		</g>
		<g>
			
				<linearGradient id="SVGID_00000104684105914125067750000009366893059260508294_" gradientUnits="userSpaceOnUse" x1="35.0335" y1="58.3611" x2="35.3415" y2="34.529">
				<stop  offset="0" style="stop-color:#005175"/>
				<stop  offset="1" style="stop-color:#6AC3CE"/>
			</linearGradient>
			<polygon style="fill:url(#SVGID_00000104684105914125067750000009366893059260508294_);" points="35.19,46.44 35.19,46.45 
				35.19,46.44 			"/>
		</g>
		<g>
			
				<linearGradient id="SVGID_00000049220140555017640280000002716438739640413355_" gradientUnits="userSpaceOnUse" x1="38.201" y1="115.2102" x2="39.5627" y2="9.8485">
				<stop  offset="0" style="stop-color:#005175"/>
				<stop  offset="1" style="stop-color:#6AC3CE"/>
			</linearGradient>
			<path style="fill:url(#SVGID_00000049220140555017640280000002716438739640413355_);" d="M47,84.57
				c-0.58-2.44-1.29-4.85-1.88-7.29c-0.04-0.04-0.06-0.09-0.04-0.16c-1.17-5.01-2.57-9.97-3.76-14.98c-0.13-0.54-3-14.11-2.25-14.09
				c0.11,0,2.91,15.08,3.07,15.74c1.04,4.39,2.17,8.76,3.18,13.15c0.07-0.04,0.12-0.07,0.2-0.06c-1.02-4.03-1.26-8.34-1.81-12.46
				c-0.84-6.27-1.19-12.84-1.38-19.15c-0.2-6.54-0.69-13.14-0.68-19.69c-0.2,0.03-0.39,0.01-0.58,0c0.02,0.3,0.05,0.6,0.07,0.91
				c0.41-0.05,0.39,0.35,0.04,0.47c0.18,2.43,1.07,24.24,1.16,24.25c-0.56-0.05-1.36-22.15-1.54-24.2c-0.57-0.01-4.72,1.46-4.55,0.6
				c0.08-0.39,3.93-1.03,4.51-1.07c-0.03-0.33-0.06-0.67-0.09-1c-1.16-0.12-7.37,2.61-7.71,1.92c-0.25-0.5,6.69-2.36,7.67-2.36
				c-0.37-4.4-1.07-8.93-0.9-13.37c-0.16,0.02-0.33,0.04-0.52,0.07l0,0c0,0,0,0,0,0c-3.34,0.44-8.28,0.73-10.16,4.01
				c1.07,3.94,2.22,7.9,3.1,11.89c0.04,0.05,0.05,0.1,0.03,0.15c3.64,16.62,6.46,33.42,12.06,49.54c0.94-0.27,0.86,0.04,0.12,0.33
				c0.39,1.11,0.76,2.23,1.13,3.35c0.17-0.08,0.35-0.12,0.54-0.13c-0.14,0.16-0.31,0.24-0.5,0.27c0.64,1.88,1.49,7.15,2.34,7.99
				c0.03,0.12,0.32,1.12,0.4,1.14c0.13,0.29,0.25,0.58,0.35,0.88c0.11,0.01,0.22,0.02,0.33,0.03c-0.03-0.08-0.06-0.16-0.09-0.24
				C48.92,89.68,47.4,86.25,47,84.57z M43.39,63.58c0.01,0.19,0.02,0.38,0.03,0.58c0.06,0.1,0.12,0.17,0.19,0.22
				C43.33,64.19,42.81,63.62,43.39,63.58z M42.48,63.14c-0.15-0.06-0.23-0.24-0.19-0.39C42.39,62.41,42.97,62.96,42.48,63.14z
				 M41.76,48.29c0.06,0.02,0.11,0.05,0.17,0.07C41.85,48.56,41.68,48.49,41.76,48.29z M41.36,58.58c0.15-0.1,0.26-0.05,0.35,0.17
				c-0.07,0.11-0.14,0.23-0.22,0.34C41.21,58.93,41.17,58.76,41.36,58.58z M36.71,19.96c0.08-0.07,0.16-0.17,0.24-0.22
				c0.16-0.08,0.3-0.01,0.42,0.21C36.95,20.31,37.07,20.26,36.71,19.96L36.71,19.96L36.71,19.96z M36.55,22.32
				c0.17-0.22,0.31-0.16,0.41,0.18C36.87,22.61,36.43,22.85,36.55,22.32z M30.8,18.98c-0.88,0.23-0.09-0.82-0.1-0.88
				C30.71,18.16,31.85,18.71,30.8,18.98z M37.66,31.93c0.18,0.31,0.16,0.56-0.08,0.73c-0.39,0.07-0.41-0.83-0.42-0.98
				C37.33,31.77,37.5,31.85,37.66,31.93z M36.92,39.03c0.14,0.16,0.21,0.35,0.22,0.55C36.71,39.42,36.7,39.41,36.92,39.03z
				 M37.63,37.81c-0.18,0.35-1.08-0.06-0.87-0.27C36.84,37.46,37.86,37.35,37.63,37.81z M37.58,36.05c0.15-0.31,0.33-0.31,0.55,0.02
				C37.98,36.37,37.8,36.36,37.58,36.05z M38.24,46.31c0.41,0.07,0.72,0.28,0.92,0.62c-0.12,0.07-0.23,0.2-0.35,0.2
				C38.15,47.16,37.28,46.76,38.24,46.31z M42.85,71.82c-0.02-0.02,0-0.07,0-0.11C43.12,71.61,42.92,71.88,42.85,71.82z
				 M42.83,69.79c0.18-0.1,0.25-0.08,0.2,0.05C42.93,69.87,42.86,69.85,42.83,69.79z"/>
		</g>
		<g>
			
				<linearGradient id="SVGID_00000023244505863170455690000012549728810095697836_" gradientUnits="userSpaceOnUse" x1="17.0017" y1="114.9362" x2="18.3634" y2="9.5745">
				<stop  offset="0" style="stop-color:#005175"/>
				<stop  offset="1" style="stop-color:#6AC3CE"/>
			</linearGradient>
			<path style="fill:url(#SVGID_00000023244505863170455690000012549728810095697836_);" d="M2.07,45.44
				c1.1,2.07,2.8,4.11,4.34,5.89c0.17-0.07,0.26,0.12,0.22,0.26c2.95,3.37,5.8,6.77,9.02,9.9c0.02-0.01,0.04-0.02,0.06-0.03
				c0.13,0.06,0.19,0.14,0.19,0.26c1.7,1.56,3.61,2.9,5.36,4.42c0-0.08,0.02-0.18,0.03-0.32c0.49-0.03,0.49-0.03,0.63,0.43
				c-0.12,0.06-0.26,0.1-0.4,0.11c0.41,0.35,0.81,0.7,1.21,1.06c0.09,0.02,0.17,0.07,0.25,0.16c0.47-0.02,0.81,0.17,1.02,0.59
				c0.4,0.31,0.45,0.38,0.19,0.56c0.48,0.42,0.94,0.86,1.41,1.3c0.21-0.13,0.43-0.25,0.67-0.34c0.02,0.02-6.15-6.33-5.54-6.79
				c0.01-0.01,11.76,12.97,13.05,14.3c-1.2-1.38-2.44-2.76-3.52-4.24c-0.05-0.01-0.11-0.02-0.17-0.03
				c-0.01-0.08-0.04-0.17-0.03-0.24c-4.02-5.6-8.11-11.06-11.92-16.79c-0.03,0.03-0.07,0.07-0.1,0.1c-0.06-0.08-0.16-0.3,0.04-0.19
				c-2.76-4.21-5.4-8.48-8.24-12.62c-0.54,0.33-0.45-0.16-0.33-0.48c-1.29-1.88-2.95-3.81-3.83-5.92c-2.82,1.21-4.97,5.76-3.58,8.63
				C2.08,45.41,2.08,45.42,2.07,45.44z M5.37,44.95c-0.92-0.24,0.32-0.81,0.28-0.72C5.66,44.21,6.19,45.17,5.37,44.95z M17.35,60.96
				c-0.21,0.13-0.41,0.12-0.61-0.04C16.7,60.44,17.71,60.76,17.35,60.96z M18.05,57.58c0.08,0.06,0.16,0.12,0.24,0.18
				c-0.08,0.13-0.16,0.25-0.24,0.38c-0.07,0.02-0.14,0.04-0.21,0.06v0c-0.18-0.15-0.37-0.31-0.55-0.46
				c-0.25,0.06-0.5,0.12-0.75,0.18c0.25-0.06,0.5-0.12,0.75-0.18C17.65,57.24,17.68,57.23,18.05,57.58z M17.04,56.6
				c0.11,0.05,0.07,0.13-0.04,0.08C17.01,56.65,17.02,56.63,17.04,56.6z M15.84,53.29c0.17-0.01,0.29,0.07,0.32,0.25
				C15.87,53.88,15.65,53.31,15.84,53.29z M9.49,45.24c0.22-0.12,7.1,11.87,7.1,11.87C16.38,57.23,8.83,45.6,9.49,45.24z
				 M4.29,38.37c0.1-0.04,2.85,5.64,3.06,6.06c0.08-0.17,1.19-1.41,1.41-1.08c0.2,0.3-1.01,1.29-1.18,1.51
				c0.76,1.41,10.04,16.47,10.62,16.09C17.29,61.56,8.15,46.79,7.32,45.31c-0.47,0.87-0.44,5.44-0.93,5.6
				c-0.91,0.3,0.38-5.29,0.72-5.99C6.91,44.56,3.67,38.6,4.29,38.37z M4.21,46.42c0.75-0.48,1.39,1.56,0.67,1.87
				C4.02,48.65,3.58,46.82,4.21,46.42z"/>
		</g>
		<g>
			
				<linearGradient id="SVGID_00000124121065379149192480000001807667060373752724_" gradientUnits="userSpaceOnUse" x1="27.7208" y1="115.0748" x2="29.0825" y2="9.7131">
				<stop  offset="0" style="stop-color:#005175"/>
				<stop  offset="1" style="stop-color:#6AC3CE"/>
			</linearGradient>
			<path style="fill:url(#SVGID_00000124121065379149192480000001807667060373752724_);" d="M26.41,69.85
				c0.02,0.1-0.01,0.22-0.02,0.32c0,0.04-0.02,0.08-0.03,0.12c-0.16,0.06-0.3,0.09-0.43,0.06c0.68,0.62,1.38,1.23,2.07,1.84
				c0.03,0,0.06-0.01,0.09,0c0-0.01,0.01-0.01,0.01-0.02l0.02,0.02c-0.01,0-0.02,0-0.03,0c-0.01,0.02-0.02,0.04-0.03,0.06
				c0.83,0.74,1.7,1.41,2.56,2.11C29.19,72.87,27.83,71.33,26.41,69.85z"/>
		</g>
		<g>
			
				<linearGradient id="SVGID_00000037662449626587532360000000942972890560011442_" gradientUnits="userSpaceOnUse" x1="54.5457" y1="115.4214" x2="55.9074" y2="10.0597">
				<stop  offset="0" style="stop-color:#005175"/>
				<stop  offset="1" style="stop-color:#6AC3CE"/>
			</linearGradient>
			<path style="fill:url(#SVGID_00000037662449626587532360000000942972890560011442_);" d="M55.05,81.89c-0.01,0-0.01,0-0.02,0
				c-0.04,0.11-0.08,0.21-0.13,0.32C54.95,82.1,55,81.99,55.05,81.89z"/>
		</g>
		<g>
			
				<linearGradient id="SVGID_00000127743805860591573230000017404987675138432914_" gradientUnits="userSpaceOnUse" x1="55.5446" y1="115.4344" x2="56.9063" y2="10.0727">
				<stop  offset="0" style="stop-color:#005175"/>
				<stop  offset="1" style="stop-color:#6AC3CE"/>
			</linearGradient>
			<path style="fill:url(#SVGID_00000127743805860591573230000017404987675138432914_);" d="M55.44,80.85
				c0.02,0.01,0.04,0.02,0.06,0.04c0.36-0.8,0.69-1.6,1.07-2.39c-0.08-0.03-0.13-0.04-0.19-0.1C56.09,79.22,55.77,80.04,55.44,80.85
				z"/>
		</g>
		<g>
			
				<linearGradient id="SVGID_00000030480409139966604590000009499759180280992919_" gradientUnits="userSpaceOnUse" x1="55.1946" y1="115.4298" x2="56.5563" y2="10.0681">
				<stop  offset="0" style="stop-color:#005175"/>
				<stop  offset="1" style="stop-color:#6AC3CE"/>
			</linearGradient>
			<path style="fill:url(#SVGID_00000030480409139966604590000009499759180280992919_);" d="M54.87,84.18
				c-0.14-0.17-0.09-0.3,0.16-0.41c0.02,0.01,0.06,0.02,0.09,0.03c1.31-1.93,2.69-3.87,3.86-5.89c-0.13-0.03-0.18-0.05-0.32-0.02
				c-0.08,0.08-0.16,0.16-0.23,0.24c0.01-0.08,0.03-0.15,0.07-0.2c-0.25,0.07-0.55,0.12-0.8,0.17c0,0.11-0.01,0.21-0.01,0.32
				c-0.13-0.05-0.23-0.13-0.31-0.23c-0.03-0.02-0.06-0.04-0.08-0.07c0.01-0.01,0.02-0.01,0.03-0.02c0-0.01-0.01-0.02-0.01-0.03
				c-0.03-0.01-0.07-0.02-0.1-0.03c-0.51,1.02-1.01,2.05-1.53,3.07c0.41,0.55,0.26,0.76-0.41,0.8c-0.99,1.96-2,3.93-3.04,5.87
				C53.11,86.57,54.06,85.42,54.87,84.18z"/>
		</g>
		<g>
			
				<linearGradient id="SVGID_00000058572878923224522530000003143106523454608821_" gradientUnits="userSpaceOnUse" x1="13.3661" y1="114.8892" x2="14.7278" y2="9.5275">
				<stop  offset="0" style="stop-color:#005175"/>
				<stop  offset="1" style="stop-color:#6AC3CE"/>
			</linearGradient>
			<path style="fill:url(#SVGID_00000058572878923224522530000003143106523454608821_);" d="M14.73,39.08
				c-0.07-0.15-0.14-0.3-0.21-0.43c-0.33,0.16-0.57,0.23-0.83,0.51c0.03,0.06,0.07,0.12,0.1,0.18c0.4,0.07,0.81,0.16,1.21,0.29
				C14.91,39.44,14.82,39.26,14.73,39.08z"/>
		</g>
		<g>
			
				<linearGradient id="SVGID_00000112609231383239811650000003732537746894945936_" gradientUnits="userSpaceOnUse" x1="21.4104" y1="114.9932" x2="22.7721" y2="9.6315">
				<stop  offset="0" style="stop-color:#005175"/>
				<stop  offset="1" style="stop-color:#6AC3CE"/>
			</linearGradient>
			<path style="fill:url(#SVGID_00000112609231383239811650000003732537746894945936_);" d="M5.81,36.72
				c0.98,2.06,2.49,3.96,3.81,5.81c1.31-1.34,1.37-3.07,3.17-4.09c-0.12-0.3-1-2.07-0.75-2.19c0.17-0.08,1.09,1.78,1.21,2.06
				c0.09,0.02,0.14,0.16,0.11,0.25c0.04,0.08,0.08,0.17,0.13,0.25c0.23-0.29,0.48-0.43,0.81-0.59c-0.24-0.44-2.16-4.55-1.72-4.71
				c0.18-0.07,1.9,4.04,2.15,4.52c0.15,0,0.21,0.18,0.15,0.29c0.24,0.51,0.47,1.01,0.72,1.52c0.39,0.16,2.64,1.24,0.81,1.61
				c0.74,1.39,7.39,13.34,7.62,13.21c-0.65,0.36-7.44-12.05-8.14-13.34c-0.42-0.21-0.85-0.38-1.29-0.51
				c0.51,0.98,7.27,13.34,7.19,13.38c-0.32,0.15-7.22-12.49-7.79-13.53c-0.49-0.05-0.98-0.15-1.45-0.29
				c-0.09,0.15-1.04,2.6-1.61,2.06c-0.3-0.28,1.2-2.33,1.3-2.42c-0.03-0.26,0.41-0.6,0.64-0.66c0.07-0.08,0.16-0.14,0.26-0.19
				c-0.05-0.09-0.1-0.18-0.15-0.28c-1.81,1.1-1.75,2.64-3,4.13c3.49,4.64,6.59,9.53,9.96,14.25c0.01-0.04,0.03-0.09,0.06-0.13
				c0.76-0.42,1.15,0.48,1.25,1.23c-0.2-0.07-0.42-0.11-0.62-0.18c5.06,6.45,10.16,12.98,15.05,19.56c0.03-0.13-0.02-0.25-0.15-0.35
				c0.12,0.11,0.17,0.22,0.15,0.35c0.65,0.88,1.34,1.72,2.07,2.54c0.12-0.16,0.27-0.26,0.43-0.38
				c-0.87-1.19-12.84-18.51-12.04-18.86c0.09-0.04,11.37,17.51,12.27,18.7c0.04-0.03,0.09-0.06,0.13-0.09
				c-2.77-4.77-5.87-9.32-8.43-14.21c-0.01,0.01-0.02,0.03-0.04,0.04c-0.17-0.14-0.25-0.3-0.25-0.48c0.03,0.01,0.05,0.02,0.08,0.03
				c-3.12-6.28-6.29-12.49-9.31-18.83c-2.78-5.81-6-11.71-8.39-17.69c-0.32,0.09-2.77,0.82-4.76,3.26c0.17,1.02,4.1,7.51,3.67,7.76
				c-0.28,0.16-3.76-6.54-3.96-7.39c-0.5,0.69-0.83,1.34-1.04,1.93c0.37,0.8,3.89,6.68,3.52,6.93c-0.39,0.28-3.29-5.69-3.66-6.5
				c-0.36,1.31-0.15,2.2-0.15,2.2S5.82,36.72,5.81,36.72z M13.64,42.42C13.64,42.42,13.63,42.42,13.64,42.42
				c0.13-0.3,0.22-0.46,0.56-0.21C14.01,42.28,13.83,42.35,13.64,42.42z M16.38,50.69c0.07,0.01,0.07,0.03,0.01,0.06
				c0,0.01,0,0.02,0,0.02l-0.03-0.01c0.01-0.01,0.02-0.01,0.02-0.01C16.38,50.73,16.38,50.71,16.38,50.69z M16.37,50.78
				c0.2,0.32,0.28,0.45,0.45,0.47C16.65,51.22,16.57,51.1,16.37,50.78z M18.76,54.28c-0.05-0.14,0.05-0.18,0.1-0.04
				C18.83,54.26,18.79,54.27,18.76,54.28z M22.08,59.53c-0.04,0.06-0.23-0.04,0.09-0.19C22.14,59.4,22.12,59.47,22.08,59.53z
				 M30.31,69.09c-0.47,0.33-11.89-14.74-11.23-15.15c0.12-0.07,5.22,7.21,5.17,7.14C24.95,62.17,30.46,68.99,30.31,69.09z"/>
		</g>
		<g>
			
				<linearGradient id="SVGID_00000043435757001640456670000004264449237352722879_" gradientUnits="userSpaceOnUse" x1="50.6262" y1="115.3708" x2="51.9879" y2="10.0091">
				<stop  offset="0" style="stop-color:#005175"/>
				<stop  offset="1" style="stop-color:#6AC3CE"/>
			</linearGradient>
			<path style="fill:url(#SVGID_00000043435757001640456670000004264449237352722879_);" d="M50.42,86.68
				c-0.09-0.04-0.18-0.06-0.29-0.06c0.11-0.27,0.27-0.49,0.51-0.64c0.92-2.9,1.55-5.98,1.85-9.02c-0.1,0.02-1.74,0.29-2.12-0.04
				c-0.24,4.25-0.45,8.5-0.76,12.75C49.85,88.67,50.12,87.66,50.42,86.68z"/>
		</g>
		<g>
			
				<linearGradient id="SVGID_00000082331650518933195370000003305364032249322897_" gradientUnits="userSpaceOnUse" x1="49.2425" y1="115.3529" x2="50.6042" y2="9.9912">
				<stop  offset="0" style="stop-color:#005175"/>
				<stop  offset="1" style="stop-color:#6AC3CE"/>
			</linearGradient>
			<path style="fill:url(#SVGID_00000082331650518933195370000003305364032249322897_);" d="M42.11,25.52
				c0.04,0.64,0.09,1.27,0.15,1.9c0.22-0.76,0.82-0.98,1.18-0.3c-0.1,0.34-0.71,1.08-1.14,0.71c1.68,16.25,1.98,32.55,4.2,48.77
				c0.47-0.12,1.15-0.3,1.64-0.17c-0.24-8.68-1.23-17.33-1.27-26.02c-0.06-0.07-0.11-0.29,0-0.36c0-0.08,0.04-1.91,0.18-1.9
				c0.55,0.03,1.26,25.13,1.35,28.25c0.13-0.02,0.27-0.05,0.39-0.08c1.12-16.91,0.64-33.89,1.03-50.82
				c-0.2,0.09-0.43-0.02-0.66,0.03c0.13,6.81,0.07,13.63,0.03,20.44c0.13,0.11,0.25,0.23,0.39,0.33c-0.08,0.13-0.16,0.25-0.24,0.38
				c-0.06,0.02-0.12,0.03-0.17,0.05c-0.01,0.31-0.03,1.8-0.19,1.78c-0.21-0.03-0.15-1.85-0.15-2.02c-0.08-0.07-0.17-0.14-0.25-0.21
				c-0.25,0.06-0.5,0.12-0.75,0.18c0.25-0.06,0.5-0.12,0.75-0.18c0.1-0.14,0.18-0.24,0.24-0.31c-0.04-6.79,0.18-13.58-0.05-20.37
				c-1.3,0.6-1.85-0.76-0.01-0.4c-0.01-0.26-0.02-0.52-0.03-0.78c-0.74-0.13-5.52,1.37-5.79,0.57c-0.18-0.52,5.25-0.98,5.78-0.93
				c-0.02-0.48-0.51-14.64-0.04-14.61c0.4,0.02,0.42,14.17,0.44,14.68c0.24,0,0.48-0.01,0.72-0.01c0.01-0.33,0.17-4.24,0.29-4.22
				c0.22,0.03,0.12,3.83,0.12,4.22c0.19-0.01,1.81,0.34,1.71,0.64c-0.16,0.47-1.4-0.16-1.7-0.21c0.08,17.23-0.15,34.63-1.14,51.84
				c0.65,0.12,0.65,0.71-0.03,0.49c-0.23,3.78-0.13,7.36,0.24,11.12c0.11-3.72,2.99-40.02,3.4-39.93c0.29,0.06-1.36,14.51-1.41,15.1
				c0.66,0.04,1.16,0.35,1.48,1c-0.81-0.19-1.02,0.34-1.51-0.58c-0.4,4.31-0.67,8.63-0.91,12.95c0.38-0.32,1.8,0.18,2.13,0.07
				c0.2-2.13,0.78-4.16,1.1-6.26c-0.02,0-0.04-0.01-0.06-0.01c0.02-0.01,0.05-0.03,0.07-0.04c1.77-11.58,2.74-23.31,4.21-34.94
				c-0.18-0.13-0.23-0.33-0.14-0.61c-0.1-0.29-0.02-0.4,0.24-0.31c0.26-2.86,0.47-5.73,0.54-8.59c-0.16-0.04-0.3-0.13-0.44-0.24
				c0.02-0.23,0.14-0.36,0.34-0.41c-1.19-0.52-2.71,0.35-3.9,0.16c-0.06,0.07-0.33-0.01-0.38-0.08c-0.2-0.02-0.61-0.07-0.65-0.33
				c-0.03-0.17,0.4-0.22,0.52-0.24c0-0.02,0-0.05,0-0.07c1.46,0.3,3.1-0.31,4.54,0.25c0.07-2.46-0.09-4.9-0.14-7.35
				c-0.04,0.02-0.07,0.04-0.11,0.07c-0.35-0.18-0.27-0.54-0.34-0.85c0.14-0.03,0.28-0.05,0.42-0.08c-0.05-0.97-0.15-1.93-0.2-2.9h0
				l0,0c0-0.06-0.11-1.71-0.01-1.71c0.12,0,0.28,1.28,0.3,1.44c0.06,0.02,0.12,0.12,0.22,0.3c-0.06,0-0.12-0.01-0.18-0.01
				c0.11,0.93,0.24,1.86,0.32,2.8c0.21-0.04,0.41-0.08,0.62-0.12c-0.19,0.39-0.25,0.5-0.58,0.74c0.09,2.57,0.21,5.15,0.12,7.73
				c0.16,0.01,0.32,0.03,0.48,0.03c0.48-4.49,0.16-9.03-0.45-13.48c-3.06-2.87-7.32-2.85-11.22-2.61c-0.1,0.45-0.47,0.28-0.76,0.18
				C46.9,9,46.82,8.96,46.74,8.91c-0.32,0.02-0.59,0.05-0.77,0.06c-1.53,0.13-3.29,1.08-4.51,1.99c-0.34,4.75,0.28,9.44,0.62,14.16
				C42.4,25.18,42.4,25.43,42.11,25.52z M48.85,68.29c-0.55-0.25-0.58-0.75-0.63-1.25C48.8,67.27,49.01,67.68,48.85,68.29z
				 M48.29,49.26c-0.04,0.02,0.45-0.12,0.43,0.04C48.67,49.75,47.67,49.6,48.29,49.26z M48.05,53.01c0.09,0.01,0.1,0.05,0.04,0.12
				C48,53.11,47.99,53.07,48.05,53.01z M47.65,32.21c0.38-0.5,0.77-0.63,1.17-0.4c0.29,0.39-0.94,1.21-1.08,1.33
				C47.25,32.95,47.22,32.64,47.65,32.21z M47.15,41.84c0.17-0.01,0.29,0.07,0.32,0.25C47.19,42.42,46.96,41.85,47.15,41.84z
				 M46.4,70.06c-0.17-0.14-0.25-0.3-0.25-0.48c0.17,0.07,0.33,0.14,0.5,0.22C46.56,69.88,46.48,69.97,46.4,70.06z M45.66,38.31
				c0.4-0.25,0.7-0.2,0.89,0.15C46.59,39.01,45.43,38.54,45.66,38.31z M45.74,66.02c-0.21,0.16-0.36,0.13-0.43-0.08
				C45.55,65.75,45.69,65.78,45.74,66.02z M55.49,49.13c-0.04,0.05-0.08,0.09-0.12,0.14C55.24,49.06,55.28,48.99,55.49,49.13
				L55.49,49.13L55.49,49.13z M57.54,26.37c1.9,0.45-1.26,0.83-1.1-0.13C56.51,25.87,57.31,26.23,57.54,26.37z M56.44,44.82
				c-1.14-0.27-0.99,0.06-1.81-1C55.45,43.77,56.08,44.06,56.44,44.82z M53.96,35.46c1.23,0.43,1.24,1.3-0.01,1.48
				C53.96,36.45,53.96,35.95,53.96,35.46z M55.77,11.23c0.24-0.71,1.48,0.09,1.37,0.75c0.13,0.34,0.41,0.49,0.75,0.53
				c0.01,0.4,0.01,0.8,0.02,1.2l0.01,0.01l-0.01-0.01c-1-0.05-1.71-0.69-2.19-1.51C55.63,11.88,55.65,11.55,55.77,11.23z
				 M55.68,24.37c0,0.07,0,0.14,0,0.21C55.5,24.51,55.47,24.44,55.68,24.37z M54.97,9.99c0.29,0.08,0.33,0.2,0.13,0.35
				C54.81,10.27,54.77,10.15,54.97,9.99z M53.24,41.28c0.08,0.06,0.16,0.12,0.24,0.18c-0.08,0.13-0.16,0.25-0.24,0.38
				c-0.07,0.02-0.14,0.04-0.21,0.06v0c-0.18-0.15-0.37-0.31-0.55-0.46c-0.25,0.06-0.5,0.12-0.75,0.18c0.25-0.06,0.5-0.12,0.75-0.18
				C52.85,40.94,52.88,40.93,53.24,41.28z M47.25,14.72c-0.07,0.43-0.23,0.81-0.47,1.15C47.02,15.53,47.18,15.15,47.25,14.72
				c-0.51,0.03-0.96-0.1-1.33-0.41C46.36,14.45,46.81,14.59,47.25,14.72z M46.79,20.78C46.8,20.77,46.8,20.77,46.79,20.78
				C46.8,20.77,46.8,20.77,46.79,20.78L46.79,20.78C46.8,20.77,46.8,20.77,46.79,20.78c-0.07,0.53-1.4,2.75-2.13,1.74
				C43.83,21.36,46.24,20.88,46.79,20.78z"/>
		</g>
		<g>
			
				<linearGradient id="SVGID_00000077293278216783984050000005303197220107335606_" gradientUnits="userSpaceOnUse" x1="49.8351" y1="115.3606" x2="51.1968" y2="9.9989">
				<stop  offset="0" style="stop-color:#005175"/>
				<stop  offset="1" style="stop-color:#6AC3CE"/>
			</linearGradient>
			<path style="fill:url(#SVGID_00000077293278216783984050000005303197220107335606_);" d="M50.36,76.91
				c0.01-0.13,0.01-0.26,0.02-0.38c-0.03,0.03-0.06,0.06-0.07,0.1C50.26,76.75,50.29,76.85,50.36,76.91z"/>
		</g>
		<g>
			
				<linearGradient id="SVGID_00000142869085538005632300000003039694254163159981_" gradientUnits="userSpaceOnUse" x1="57.2768" y1="115.4567" x2="58.6385" y2="10.095">
				<stop  offset="0" style="stop-color:#005175"/>
				<stop  offset="1" style="stop-color:#6AC3CE"/>
			</linearGradient>
			<path style="fill:url(#SVGID_00000142869085538005632300000003039694254163159981_);" d="M61.81,79.6
				c-0.01-0.01-0.02-0.02-0.03-0.03c-0.18-0.12-0.45-0.25-0.68-0.32c-2.19,3.25-4.78,5.91-7.53,8.67
				C56.55,85.42,59.24,82.51,61.81,79.6z"/>
		</g>
		<g>
			
				<linearGradient id="SVGID_00000139978693979807857240000011897716724855060927_" gradientUnits="userSpaceOnUse" x1="46.9179" y1="115.3229" x2="48.2796" y2="9.9612">
				<stop  offset="0" style="stop-color:#005175"/>
				<stop  offset="1" style="stop-color:#6AC3CE"/>
			</linearGradient>
			<path style="fill:url(#SVGID_00000139978693979807857240000011897716724855060927_);" d="M46.62,90.08
				c0.19,0.26,0.39,0.5,0.61,0.74c0.21,0.09,0.42,0.17,0.63,0.23c-0.18-0.12-0.35-0.25-0.52-0.38
				C47.09,90.48,46.85,90.29,46.62,90.08z"/>
		</g>
		<g>
			
				<linearGradient id="SVGID_00000140724950725995913880000009455978184990719130_" gradientUnits="userSpaceOnUse" x1="67.3158" y1="115.5865" x2="68.6775" y2="10.2248">
				<stop  offset="0" style="stop-color:#005175"/>
				<stop  offset="1" style="stop-color:#6AC3CE"/>
			</linearGradient>
			<path style="fill:url(#SVGID_00000140724950725995913880000009455978184990719130_);" d="M67.7,29.09
				c0.11,0.27,0.95,0.51,1.2,0.6c0.1-0.34,0.19-0.68,0.27-1.03c-0.4-0.21-0.68-0.47-1.11-0.64C67.95,28.37,67.82,28.73,67.7,29.09z"
				/>
		</g>
		<g>
			
				<linearGradient id="SVGID_00000037662374417062125620000000039635655165021113_" gradientUnits="userSpaceOnUse" x1="2.9737" y1="114.7549" x2="4.3354" y2="9.3932">
				<stop  offset="0" style="stop-color:#005175"/>
				<stop  offset="1" style="stop-color:#6AC3CE"/>
			</linearGradient>
			<path style="fill:url(#SVGID_00000037662374417062125620000000039635655165021113_);" d="M4.63,54.65
				c0.55-1.05,0.55-2.4,1.58-3.2C4.79,49.61,3,47.7,1.99,45.61c-0.66,1.45-0.53,2.77-0.59,4.31c0.02,0.02,0.05,0.05,0.08,0.09
				C2.61,51.5,3.43,53.17,4.63,54.65z"/>
		</g>
		<g>
			
				<linearGradient id="SVGID_00000039135953359460601340000000433313752443291283_" gradientUnits="userSpaceOnUse" x1="27.0457" y1="115.066" x2="28.4074" y2="9.7043">
				<stop  offset="0" style="stop-color:#005175"/>
				<stop  offset="1" style="stop-color:#6AC3CE"/>
			</linearGradient>
			<path style="fill:url(#SVGID_00000039135953359460601340000000433313752443291283_);" d="M26.95,73.01
				c0.41,0.32,0.86,0.58,1.28,0.89c-0.28-0.28-0.58-0.56-0.87-0.82C27.25,73.09,27.12,73.06,26.95,73.01z"/>
		</g>
		<g>
			
				<linearGradient id="SVGID_00000104699569365821875240000008682878207798837400_" gradientUnits="userSpaceOnUse" x1="3.2561" y1="114.7586" x2="4.6178" y2="9.3969">
				<stop  offset="0" style="stop-color:#005175"/>
				<stop  offset="1" style="stop-color:#6AC3CE"/>
			</linearGradient>
			<path style="fill:url(#SVGID_00000104699569365821875240000008682878207798837400_);" d="M4.52,55.13
				c-0.31-0.33-0.65-0.69-0.98-1.08c0.49,0.64,0.89,1.17,0.96,1.25C4.51,55.25,4.52,55.19,4.52,55.13z"/>
		</g>
		<g>
			
				<linearGradient id="SVGID_00000106829612360008846950000004948188849183873714_" gradientUnits="userSpaceOnUse" x1="2.1126" y1="114.7438" x2="3.4743" y2="9.3821">
				<stop  offset="0" style="stop-color:#005175"/>
				<stop  offset="1" style="stop-color:#6AC3CE"/>
			</linearGradient>
			<path style="fill:url(#SVGID_00000106829612360008846950000004948188849183873714_);" d="M2.27,52.38
				c0.38,0.59,0.82,1.15,1.27,1.67C3.12,53.5,2.64,52.87,2.27,52.38z"/>
		</g>
		<g>
			
				<linearGradient id="SVGID_00000097479350412284703360000006681403593107403696_" gradientUnits="userSpaceOnUse" x1="17.467" y1="114.9422" x2="18.8287" y2="9.5805">
				<stop  offset="0" style="stop-color:#005175"/>
				<stop  offset="1" style="stop-color:#6AC3CE"/>
			</linearGradient>
			<path style="fill:url(#SVGID_00000097479350412284703360000006681403593107403696_);" d="M17.98,64.77c0,0.01,0,0.01,0,0.02
				c0.09,0.08,0.17,0.16,0.26,0.24C18.22,64.91,18.16,64.81,17.98,64.77z"/>
		</g>
		<g>
			
				<linearGradient id="SVGID_00000135665640498606624010000012675084467260229029_" gradientUnits="userSpaceOnUse" x1="15.1929" y1="114.9128" x2="16.5546" y2="9.5511">
				<stop  offset="0" style="stop-color:#005175"/>
				<stop  offset="1" style="stop-color:#6AC3CE"/>
			</linearGradient>
			<path style="fill:url(#SVGID_00000135665640498606624010000012675084467260229029_);" d="M19.86,67.46
				c0.14-0.16,2.21,1.72,2.52,1.97c-0.03-0.39-0.13-0.77-0.31-1.13c-1.33-1.04-2.6-2.14-3.83-3.27c0.01,0.07,0.01,0.15,0,0.24
				c-0.25-0.07-0.25-0.27-0.26-0.47c-4.24-3.94-7.93-8.36-11.49-12.97c-0.72,1.03-1.46,1.95-1.48,3.28
				c1.02,1.14,2.02,2.32,3.14,3.38c0.76,0.71,3.36,2.28,3.68,3.43c0.16,0.13,2.37,1.83,2.24,1.98c-0.26,0.3-3.48-2.52-3.7-2.68
				c-0.22,0.19-0.81,0.82-1.17,0.55c-0.21-0.43-0.05-0.79,0.49-1.08c-1.61-1.25-3.16-2.67-4.6-4.1c0.09,0.33,0.2,1.4-0.24,1.53
				c-0.36,0.11-0.41-1.99-0.38-2.17c-0.2-0.22-3.48-3.93-2.79-4.31c0,0,0.25,0.32,0.59,0.77c-0.41-0.64-0.75-1.32-0.92-2.01
				c-0.23,1.95-0.87,3.53,0.46,5.31c0.93,1.25,2.63,2.31,3.82,3.27c4.03,3.28,8.2,6.39,12.46,9.35c0,0,0-0.01,0.01-0.01v0v0
				c3.6,3.15,8.42,5.63,12.59,7.94C29.58,75.3,19.32,68.05,19.86,67.46z M8.56,55.28c-0.81-0.29-0.74,0.02-1.45-0.91
				c0.82-0.06,1.44,0.24,1.81,1C8.79,55.33,8.67,55.32,8.56,55.28z M16.73,64.47c0.09,0.01,0.1,0.05,0.04,0.12
				C16.69,64.57,16.68,64.53,16.73,64.47z M17.13,66.92c-0.68,0.81-0.13-2.68,0.22-0.36C17.29,66.65,17.23,66.8,17.13,66.92z"/>
		</g>
		<g>
			
				<linearGradient id="SVGID_00000109747319731498684510000004730560523242707087_" gradientUnits="userSpaceOnUse" x1="24.2915" y1="115.0304" x2="25.6532" y2="9.6687">
				<stop  offset="0" style="stop-color:#005175"/>
				<stop  offset="1" style="stop-color:#6AC3CE"/>
			</linearGradient>
			<path style="fill:url(#SVGID_00000109747319731498684510000004730560523242707087_);" d="M24.03,69.93
				c-0.13,0.05-0.29,0.14-0.49,0.26l-0.07,0l0.07,0C23.74,70.07,23.9,69.99,24.03,69.93c-0.19-0.2-0.39-0.38-0.6-0.56
				c-0.02,0.21-0.05,0.41-0.07,0.62c-0.11-0.04-0.23-0.06-0.34-0.07c1.18,0.99,2.42,1.91,3.63,2.86c-0.01-0.04-0.02-0.08-0.01-0.13
				c0.01-0.05,0.02-0.11,0.05-0.16C25.77,71.67,24.91,70.8,24.03,69.93z"/>
		</g>
		<g>
			
				<linearGradient id="SVGID_00000018209485626820157860000013548131498093584821_" gradientUnits="userSpaceOnUse" x1="45.5838" y1="115.3056" x2="46.9455" y2="9.9439">
				<stop  offset="0" style="stop-color:#005175"/>
				<stop  offset="1" style="stop-color:#6AC3CE"/>
			</linearGradient>
			<path style="fill:url(#SVGID_00000018209485626820157860000013548131498093584821_);" d="M45.59,78.02
				c0.35,1.28,0.69,2.57,1.06,3.84c-0.32-1.47-0.6-2.95-0.98-4.4c-0.08-0.01-0.15,0.01-0.23,0C45.49,77.65,45.54,77.84,45.59,78.02z
				"/>
		</g>
		<g>
			
				<linearGradient id="SVGID_00000003079285019182952620000010657358547137172113_" gradientUnits="userSpaceOnUse" x1="85.4884" y1="115.8214" x2="86.8501" y2="10.4597">
				<stop  offset="0" style="stop-color:#005175"/>
				<stop  offset="1" style="stop-color:#6AC3CE"/>
			</linearGradient>
			<path style="fill:url(#SVGID_00000003079285019182952620000010657358547137172113_);" d="M85.52,35.01
				c0.88-2.11,1.57-4.27,2.4-6.4c-0.18-0.06-0.29-0.09-0.29-0.09s0.03-0.5-0.12-1.2c-0.93,2.41-1.42,4.96-2.28,7.4
				C85.35,34.78,85.44,34.89,85.52,35.01z"/>
		</g>
		<g>
			
				<linearGradient id="SVGID_00000024707076967240892840000015256539996612215483_" gradientUnits="userSpaceOnUse" x1="83.9017" y1="115.8008" x2="85.2634" y2="10.4391">
				<stop  offset="0" style="stop-color:#005175"/>
				<stop  offset="1" style="stop-color:#6AC3CE"/>
			</linearGradient>
			<path style="fill:url(#SVGID_00000024707076967240892840000015256539996612215483_);" d="M85,35.46
				c-0.02,0.05-0.04,0.1-0.05,0.15c-0.09,0.32-0.23,0.54-0.38,0.83c0.07,0.1,0.15,0.19,0.22,0.29c0.17-0.39,0.34-0.79,0.5-1.18
				C85.19,35.53,85.1,35.5,85,35.46z"/>
		</g>
		<g>
			
				<linearGradient id="SVGID_00000097490680061977101790000016928505341263133372_" gradientUnits="userSpaceOnUse" x1="91.5682" y1="115.8999" x2="92.9299" y2="10.5382">
				<stop  offset="0" style="stop-color:#005175"/>
				<stop  offset="1" style="stop-color:#6AC3CE"/>
			</linearGradient>
			<path style="fill:url(#SVGID_00000097490680061977101790000016928505341263133372_);" d="M91.14,41.46
				c0.03,0.06,0.06,0.12,0.1,0.18c-0.06,0-0.13,0-0.19,0c-0.12,0.23-0.25,0.46-0.38,0.69c0.08,0.1,0.15,0.21,0.2,0.33
				c0.08,0.03,0.34,0.22,0.42,0.29c0.35-0.6,3.02-4.94,2.79-5.36c0.12-0.23,0.24-0.46,0.36-0.68c-0.25-0.13-0.4-0.18-0.4-0.18
				s0.07-0.32,0.06-0.85C93.23,37.77,92.13,39.6,91.14,41.46z"/>
		</g>
		<g>
			
				<linearGradient id="SVGID_00000103232315486234102150000012125788407946187677_" gradientUnits="userSpaceOnUse" x1="88.9668" y1="115.8663" x2="90.3285" y2="10.5046">
				<stop  offset="0" style="stop-color:#005175"/>
				<stop  offset="1" style="stop-color:#6AC3CE"/>
			</linearGradient>
			<path style="fill:url(#SVGID_00000103232315486234102150000012125788407946187677_);" d="M89.61,42.87
				c0.13,0.05,0.14,0.26,0.25,0.35c0.12-0.22,0.24-0.43,0.36-0.65c-0.14-0.13-0.31-0.14-0.49-0.16c0.02,0.15,0.02,0.31-0.09,0.43
				C89.63,42.85,89.62,42.86,89.61,42.87z"/>
		</g>
		<g>
			
				<linearGradient id="SVGID_00000078019647037523826260000011181985499508363150_" gradientUnits="userSpaceOnUse" x1="89.6885" y1="115.8756" x2="91.0502" y2="10.5139">
				<stop  offset="0" style="stop-color:#005175"/>
				<stop  offset="1" style="stop-color:#6AC3CE"/>
			</linearGradient>
			<path style="fill:url(#SVGID_00000078019647037523826260000011181985499508363150_);" d="M90.6,41.63
				c-0.02,0.1-0.03,0.19-0.03,0.29c0.05-0.09,0.1-0.19,0.15-0.28C90.68,41.63,90.64,41.63,90.6,41.63z"/>
		</g>
		<g>
			
				<linearGradient id="SVGID_00000011016008109046442560000014099716759091856551_" gradientUnits="userSpaceOnUse" x1="76.9816" y1="115.7114" x2="78.3433" y2="10.3497">
				<stop  offset="0" style="stop-color:#005175"/>
				<stop  offset="1" style="stop-color:#6AC3CE"/>
			</linearGradient>
			<path style="fill:url(#SVGID_00000011016008109046442560000014099716759091856551_);" d="M85.61,35.43
				c-0.01,0.01-0.03,0.02-0.04,0.03C85.37,35.97,85.19,36.49,85,37c0.11,0.18,0.97,1.8,0.69,1.94c0.37,0.36-0.95,0.53-0.93,0.08
				c0.09-0.26,0.3-0.34,0.62-0.25c-0.12-0.15-0.22-0.33-0.32-0.5c-0.6,0.71-0.42-0.34-0.17-0.37c-0.04-0.09-0.08-0.18-0.11-0.27
				c-1.21,3.17-2.76,6.36-4.39,9.33c0,0.01,0,0.02,0,0.03c-0.01,0-0.02,0.01-0.02,0.01c-3,5.44-5.84,10.97-9.11,16.26
				c0.04,0.41,0.16,0.65-0.46,0.74c-0.45,0.73-0.89,1.47-1.32,2.21c0.59,0.34,0.22,1.55-0.59,1.01c-2.33,3.96-4.87,7.67-7.41,11.49
				c0.17,0.22,0.52,0.29,0.65,0.56c1.93-2.17,3.62-4.5,5.21-6.93c-0.01,0-0.02,0-0.03,0c-0.02-0.14-0.04-0.29-0.07-0.43
				c0.14-0.06,0.28-0.09,0.41-0.05c0.31-0.48,4.5-7.57,4.81-7.35c0.95,0.65-9.33,14.14-10.07,14.95c0.02,0.09,0.06,0.13,0.14,0.17
				c6-6.4,10.79-14,16.92-20.24c-0.06-0.07-0.09-0.15-0.11-0.24c-0.34,0.37-2.72,3.15-2.91,2.97c-0.2-0.19,2.46-3.18,2.82-3.61
				c-0.07-0.35-0.2-0.68-0.43-0.98c0.25-0.06,0.5-0.12,0.75-0.18c0.12,0.1,0.23,0.2,0.35,0.3c3.52-4.55,6.72-9.24,9.76-14.12
				c-0.2-0.28-0.44-0.42-0.63-0.66c-0.01,0-0.02,0-0.03,0c0-0.01,0-0.02,0-0.02c-0.16-0.07-0.34-0.16-0.48-0.28
				c0.06,0.09,0.12,0.18,0.2,0.27c-0.3-0.32-0.78-0.57-0.47-1.1c0.15-0.24,0.66,0.37,0.78,0.5c0-0.14,0.01-0.27,0.05-0.4
				c-0.64-0.63-0.83-1.65-1.55-2.31c-0.22-0.2-2.3-1.34-1.99-1.94c0.36-0.71,3.52,3.01,3.77,3.72c0-0.03-0.01-0.06-0.02-0.09
				c0.53-0.46,0.53-0.46,1.15-0.06c0.18-0.01,0.35-0.02,0.53-0.03c0,0,0,0.01,0.01,0.01c1.03-1.99,2.06-3.98,3.05-5.98
				c-0.1-0.63-0.33-1.41-0.82-2.26c-0.31,0.21-0.42-0.33-0.31-0.5c-1.14-1.68-2.89-3.05-4.8-3.75c-0.83,2.2-1.62,4.42-2.46,6.62
				C85.63,35.31,85.62,35.35,85.61,35.43z M84.39,46.72c-0.33-0.2-0.33-0.38,0-0.55C84.73,46.41,84.73,46.59,84.39,46.72z
				 M84.39,44.43c0.02-0.05,0.12-0.07,0.17-0.09C85.08,44.54,84.16,44.97,84.39,44.43z M84.88,41.69c-0.35-0.01-0.5-0.2-0.47-0.56
				C84.49,40.44,85.64,41.54,84.88,41.69z M85.28,42.42l0.02-0.09l0.07,0.06L85.28,42.42z M88.73,42.84c0,0.06,0.01,0.13,0.01,0.19
				C88.74,42.96,88.73,42.9,88.73,42.84C88.73,42.84,88.73,42.84,88.73,42.84z M88.21,41.15l0.07,0.06l-0.09,0.03L88.21,41.15z
				 M87.07,41.82c-0.16,0.08-0.41-0.57-0.13-0.73C87.22,41.14,87.37,41.66,87.07,41.82z M86.83,39.09c0.23,0.15,0.46,0.31,0.69,0.46
				v0l0,0v0c0,0,0,0,0,0c-0.36,0.95-0.75,0.53-0.84-0.18C86.67,39.26,86.68,39.13,86.83,39.09z M91.73,31.92
				c0.2,0.08,0.18,0.15,0,0.21C91.73,32.06,91.73,31.99,91.73,31.92z M91.23,36.41l0.05,0.08l-0.09,0.01L91.23,36.41z M91.24,40.38
				c0-0.01,0-0.01,0-0.02C91.24,40.36,91.24,40.37,91.24,40.38c-0.02,0.05-0.04,0.1-0.05,0.15C91.2,40.48,91.22,40.43,91.24,40.38z
				 M88.91,34.24c0.32-0.17,1.81,0.63,1.87,1l-0.03,0.02c-0.84,0.02-1.57,0.3-2.42,0.38l0.02-0.03
				C88.32,35.06,88.35,34.54,88.91,34.24z M86.66,35.87c0.02-0.06,0.13-0.08,0.2-0.12c0.29,0.09,0.42,0.32,0.49,0.58
				c1.21-0.57-1.14,1.93-0.58,0.52C86.52,36.56,86.51,36.22,86.66,35.87z"/>
		</g>
		<g>
			
				<linearGradient id="SVGID_00000169527600401048397910000008535136169890636449_" gradientUnits="userSpaceOnUse" x1="84.9906" y1="115.8149" x2="86.3523" y2="10.4532">
				<stop  offset="0" style="stop-color:#005175"/>
				<stop  offset="1" style="stop-color:#6AC3CE"/>
			</linearGradient>
			<path style="fill:url(#SVGID_00000169527600401048397910000008535136169890636449_);" d="M88.67,47.21
				c0.81-1.23,1.58-2.48,2.32-3.76c-0.14-0.21-0.26-0.38-0.28-0.65c-0.09-0.03-0.17-0.07-0.26-0.1c-0.03,0.05-0.05,0.1-0.08,0.15
				c-0.1,0.17-0.19,0.34-0.29,0.52c0.56,0.27-0.1,1.09-0.29,0.47c-2.97,4.61-5.75,9.25-9.11,13.61c0.08,0.04,0.17,0.09,0.25,0.13
				c2.3-3.23,4.7-6.41,7.14-9.53C87.38,47.95,88.12,46.55,88.67,47.21z"/>
		</g>
		<g>
			
				<linearGradient id="SVGID_00000114753831013375430240000007254135992224996787_" gradientUnits="userSpaceOnUse" x1="82.1119" y1="115.7777" x2="83.4736" y2="10.416">
				<stop  offset="0" style="stop-color:#005175"/>
				<stop  offset="1" style="stop-color:#6AC3CE"/>
			</linearGradient>
			<path style="fill:url(#SVGID_00000114753831013375430240000007254135992224996787_);" d="M82.33,33.68
				c1.38-2.98,2.42-6.08,3.47-9.19c-0.49-0.4-1.06-0.73-1.63-1c-0.79,3.07-2.2,6.23-3.5,9.11C81.25,32.92,81.82,33.27,82.33,33.68z"
				/>
		</g>
		<g>
			
				<linearGradient id="SVGID_00000001644837311105761800000002319958928703513257_" gradientUnits="userSpaceOnUse" x1="22.8761" y1="115.0121" x2="24.2378" y2="9.6504">
				<stop  offset="0" style="stop-color:#005175"/>
				<stop  offset="1" style="stop-color:#6AC3CE"/>
			</linearGradient>
			<path style="fill:url(#SVGID_00000001644837311105761800000002319958928703513257_);" d="M23.25,32.08
				c0.45,1.29,0.9,2.58,1.35,3.87c-0.38-1.31-0.85-2.58-1.26-3.87C23.3,32.08,23.28,32.08,23.25,32.08z"/>
		</g>
		<g>
			
				<linearGradient id="SVGID_00000044160812369559779730000004852490187023005826_" gradientUnits="userSpaceOnUse" x1="83.2757" y1="115.7928" x2="84.6374" y2="10.4311">
				<stop  offset="0" style="stop-color:#005175"/>
				<stop  offset="1" style="stop-color:#6AC3CE"/>
			</linearGradient>
			<path style="fill:url(#SVGID_00000044160812369559779730000004852490187023005826_);" d="M84.46,29.3
				c-0.08,0.22-0.17,0.45-0.25,0.67c0.15-0.11,0.29-0.23,0.36-0.42C84.54,29.46,84.47,29.38,84.46,29.3z"/>
		</g>
		<g>
			
				<linearGradient id="SVGID_00000149342681213767557040000007304455894940561058_" gradientUnits="userSpaceOnUse" x1="83.8353" y1="115.8" x2="85.197" y2="10.4383">
				<stop  offset="0" style="stop-color:#005175"/>
				<stop  offset="1" style="stop-color:#6AC3CE"/>
			</linearGradient>
			<path style="fill:url(#SVGID_00000149342681213767557040000007304455894940561058_);" d="M84.89,29.29
				c1.24,0.56-0.04,1.69-0.86,1.14c-0.45,1.17-0.97,2.29-1.49,3.44c0.68,0.69,1.14,1.42,1.72,2.17c0.13-0.24,0.2-0.5,0.29-0.75
				c-0.13-0.05-0.35-0.1-0.33-0.3c0.12-0.28,0.31-0.41,0.57-0.41c0.06-0.17,0.13-0.33,0.19-0.5c-0.38,0.04-0.6-0.74-0.68-0.95
				c0.17,0,0.33,0,0.5,0v0c0.17,0,0.33,0,0.5,0.01c0,0.01,0,0.02,0,0.02c0.73-2.14,1.33-4.31,2.04-6.45
				c-0.13-0.37-0.31-0.76-0.57-1.15c-0.33-0.14-0.53-0.39-0.61-0.74c-0.03-0.03-0.05-0.05-0.08-0.08c-0.41,1.52-1.04,2.94-1.57,4.42
				C84.65,29.02,84.82,29.18,84.89,29.29z M85.07,31.46l0.03,0.09L85,31.53L85.07,31.46z M84.81,32.89
				c-0.29-0.06-0.42-0.26-0.37-0.62c0.37-0.68,0.8,0.43,0.87,0.61C85.13,32.89,84.97,32.89,84.81,32.89z"/>
		</g>
		<g>
			
				<linearGradient id="SVGID_00000119813380120143315660000011143416230407442874_" gradientUnits="userSpaceOnUse" x1="43.5603" y1="115.2795" x2="44.922" y2="9.9178">
				<stop  offset="0" style="stop-color:#005175"/>
				<stop  offset="1" style="stop-color:#6AC3CE"/>
			</linearGradient>
			<path style="fill:url(#SVGID_00000119813380120143315660000011143416230407442874_);" d="M39.83,79.57
				c2.66,3.92,4.68,8.17,8.24,11.32c-1.42-4.01-4.95-7.71-7.16-11.4C40.66,79.54,40.06,79.58,39.83,79.57z M40.86,80.57
				c-0.09-0.24-0.18-0.48-0.28-0.72C40.67,80.09,40.76,80.33,40.86,80.57c0.3,0.11,0.6,0.23,0.89,0.34
				C41.45,80.79,41.15,80.68,40.86,80.57z"/>
		</g>
		<g>
			
				<linearGradient id="SVGID_00000054245987387336223110000012081811731905563017_" gradientUnits="userSpaceOnUse" x1="40.873" y1="115.2447" x2="42.2347" y2="9.883">
				<stop  offset="0" style="stop-color:#005175"/>
				<stop  offset="1" style="stop-color:#6AC3CE"/>
			</linearGradient>
			<path style="fill:url(#SVGID_00000054245987387336223110000012081811731905563017_);" d="M39.39,81.16
				c1.4,1.95,2.89,3.75,4.46,5.57c-1.66-2.18-3.58-4.3-5.05-6.62c-0.03,0.03-0.06,0.06-0.09,0.09
				C38.94,80.53,39.16,80.85,39.39,81.16z"/>
		</g>
		<g>
			
				<linearGradient id="SVGID_00000173856683440874750090000009303108682663707794_" gradientUnits="userSpaceOnUse" x1="43.5455" y1="115.2793" x2="44.9072" y2="9.9176">
				<stop  offset="0" style="stop-color:#005175"/>
				<stop  offset="1" style="stop-color:#6AC3CE"/>
			</linearGradient>
			<path style="fill:url(#SVGID_00000173856683440874750090000009303108682663707794_);" d="M41.41,79.1
				c-0.06,0.06-0.22,0.23-0.22,0.34c1.75,2.83,3.62,5.64,5.53,8.38c-1.65-3.02-3.36-6.04-4.82-9.16
				C41.88,78.77,41.51,78.92,41.41,79.1z"/>
		</g>
		<g>
			
				<linearGradient id="SVGID_00000078732983803624184020000008971899405118715809_" gradientUnits="userSpaceOnUse" x1="93.8727" y1="115.9297" x2="95.2344" y2="10.568">
				<stop  offset="0" style="stop-color:#005175"/>
				<stop  offset="1" style="stop-color:#6AC3CE"/>
			</linearGradient>
			<path style="fill:url(#SVGID_00000078732983803624184020000008971899405118715809_);" d="M94.93,49
				c-0.13,0.11-0.27,0.23-0.4,0.34c-0.01,0.11-0.01,0.22,0,0.33c0.14-0.22,0.28-0.45,0.43-0.67C94.94,49,94.94,49,94.93,49z"/>
		</g>
		<g>
			
				<linearGradient id="SVGID_00000070076445080453664130000012843860974915016348_" gradientUnits="userSpaceOnUse" x1="93.9607" y1="115.9308" x2="95.3224" y2="10.5691">
				<stop  offset="0" style="stop-color:#005175"/>
				<stop  offset="1" style="stop-color:#6AC3CE"/>
			</linearGradient>
			<path style="fill:url(#SVGID_00000070076445080453664130000012843860974915016348_);" d="M94.37,48.66
				c0.19-0.14,0.28-0.05,0.56,0.34c0.01,0,0.01,0,0.02,0.01c1.19-1.74,2.17-3.71,3.17-5.58c-0.11-2.49-1.28-5.21-3.53-6.46
				c-1.09,2.06-1.95,4.29-2.91,6.42C92.77,45.22,93.78,46.59,94.37,48.66z M93.45,43.02c0,0.49,0,0.98,0.01,1.48
				c-0.24-0.04-0.49-0.04-0.72-0.11C91.85,44.12,93.15,43.12,93.45,43.02z"/>
		</g>
		<g>
			
				<linearGradient id="SVGID_00000123415349464822168830000012353311056704594103_" gradientUnits="userSpaceOnUse" x1="57.6847" y1="115.462" x2="59.0464" y2="10.1003">
				<stop  offset="0" style="stop-color:#005175"/>
				<stop  offset="1" style="stop-color:#6AC3CE"/>
			</linearGradient>
			<path style="fill:url(#SVGID_00000123415349464822168830000012353311056704594103_);" d="M59.87,71.51
				c-0.03-0.1-0.04-0.21-0.03-0.31c-0.15-0.08-0.27-0.19-0.41-0.29c-0.99,2.33-2.04,4.61-2.88,7c0.04,0.06,0.14,0.14,0.21,0.18
				c0.04-0.08,0.08-0.17,0.12-0.25c-0.17-0.22-0.02-0.28,0.17-0.34c0.02-0.05,0.05-0.1,0.07-0.14c-0.01-0.03-0.02-0.07-0.03-0.1
				c0.02,0.01,0.04,0.01,0.07,0.02C58.1,75.36,58.97,73.43,59.87,71.51z"/>
		</g>
		<g>
			
				<linearGradient id="SVGID_00000058568533649203683320000006832874263666402712_" gradientUnits="userSpaceOnUse" x1="61.2356" y1="115.5079" x2="62.5973" y2="10.1462">
				<stop  offset="0" style="stop-color:#005175"/>
				<stop  offset="1" style="stop-color:#6AC3CE"/>
			</linearGradient>
			<path style="fill:url(#SVGID_00000058568533649203683320000006832874263666402712_);" d="M61.91,63.77
				C61.91,63.76,61.91,63.76,61.91,63.77c0.06-0.11,0.06-0.15,0.04-0.15c-0.03,0.08-0.07,0.17-0.1,0.25
				C61.87,63.83,61.89,63.8,61.91,63.77z"/>
		</g>
		<g>
			
				<linearGradient id="SVGID_00000027604691803871859080000017214341564184249244_" gradientUnits="userSpaceOnUse" x1="75.0779" y1="115.6868" x2="76.4396" y2="10.3251">
				<stop  offset="0" style="stop-color:#005175"/>
				<stop  offset="1" style="stop-color:#6AC3CE"/>
			</linearGradient>
			<path style="fill:url(#SVGID_00000027604691803871859080000017214341564184249244_);" d="M76.14,32.77
				c0,0.01,0.01,0.01,0.01,0.02c0,0,0,0,0,0C76.15,32.78,76.15,32.78,76.14,32.77z"/>
		</g>
		<g>
			
				<linearGradient id="SVGID_00000058580696606304899290000009030834304255306646_" gradientUnits="userSpaceOnUse" x1="69.1716" y1="115.6105" x2="70.5333" y2="10.2488">
				<stop  offset="0" style="stop-color:#005175"/>
				<stop  offset="1" style="stop-color:#6AC3CE"/>
			</linearGradient>
			<path style="fill:url(#SVGID_00000058580696606304899290000009030834304255306646_);" d="M69.64,28.35
				c0.25,0.16,0.38,0.57-0.09,0.46c-1.92,9.58-4.01,19.17-6.5,28.62c0.12,0.04,0.42,0.15,0.33,0.35c-0.22,0.12-0.15,0.14-0.42-0.01
				c-0.52,1.96-1.06,3.92-1.62,5.86c0.16,0.02,0.32,0.03,0.48,0.05c0.05-0.04,0.1-0.06,0.13-0.06c1.46-3.71,3.27-8.2,3.41-8.14
				c0.6,0.24-5.29,13.95-5.5,14.44c0.18,0.17,0.29,0.38,0.35,0.63c0.04,0.02,0.07,0.05,0.1,0.07c1.84-3.72,3.49-7.49,5.23-11.24
				c-0.35,0.11-0.67,0.33-0.96,0.67c-0.05-0.6,0.62-1.4,1.27-1.37c3.77-8.32,7.28-16.65,10.13-25.35c-0.48-0.19-1.7-0.73-1.76-1.24
				c-0.05-0.45,1.42,0.27,1.83,0.61c-0.47-0.51-0.54-1.44-1.14-1.96c-0.69-0.59-1.78-0.85-2.65-1.05c-0.05,0.29-0.1,0.59-0.17,0.88
				c0.08,0.13,0.12,0.28,0.14,0.45c-0.08-0.03-0.16-0.07-0.21-0.12c-0.07,0.27-0.13,0.54-0.19,0.81c0.15,0.09,0.29,0.19,0.41,0.31
				c-0.16,0-0.32,0-0.48,0.01c-0.28,1.35-4.69,20.02-5.6,19.62c-0.05-0.02,3.96-13.83,4.07-14.25c-0.01,0.02-0.02,0.04-0.03,0.05
				c-0.09-0.01-0.1-0.05-0.04-0.12c0.05,0,0.08,0.02,0.08,0.05c0.58-2.25,1.05-4.51,1.58-6.77c-0.04-0.1-0.06-0.2-0.06-0.32
				c0.04,0.02,0.08,0.04,0.12,0.06c0.05-0.28,0.1-0.55,0.15-0.83c-0.37-0.4-0.77-0.92,0.11-0.65c0.03-0.18,1.43-8.74,1.56-8.7
				c0.53,0.13-1.24,8.49-1.31,8.87c1.49,0.59,3.52,1.38,3.99,3.12c1.13-3.41,2.53-6.67,3.92-9.98c-0.62-0.14-1.02-0.21-1.02-0.21
				c-0.08-3.49-5.06-4.85-7.76-5.48c-0.49,3.29-0.94,6.61-1.5,9.89C69.89,27.02,69.77,27.69,69.64,28.35z M62.36,65.33
				c-0.44-0.13-0.11-0.58,0.04-0.5C62.65,65.03,62.63,65.2,62.36,65.33z M73.3,35.25c0.3,0,0.41,0.18,0.43,0.45
				c-0.09,0.02-0.18,0.04-0.27,0.06c-0.07-0.03-0.15-0.05-0.22-0.08C73.26,35.55,73.28,35.4,73.3,35.25z M70.32,40.42
				C70.32,40.42,70.32,40.42,70.32,40.42L70.32,40.42c0.41,0,0.82,0.01,1.22,0.01c0.08,0.08,0.16,0.16,0.24,0.24l0,0
				c0,0.23,0.19,1.94-0.14,2.15c-0.45,0.29-1.2,0.28-1.34-0.42c0.08-0.33,0.17-0.66,0.25-0.99c-0.07-0.23-0.24-0.39-0.49-0.48
				C70.15,40.76,70.23,40.59,70.32,40.42z M69.36,48.69c0.01,0,0.04,0.05,0.07,0.08c-0.21,0.09-0.15,0.12-0.25,0
				C69.23,48.74,69.29,48.7,69.36,48.69z M67.85,48.71c0.03-0.03,0.1-0.05,0.14-0.07c0.13,0.15,0.11,0.24-0.08,0.29
				C67.81,48.84,67.79,48.77,67.85,48.71z M69.29,34.7c-0.13,0.31-0.52-0.2-0.16-0.4C69.31,34.39,69.36,34.54,69.29,34.7z
				 M78.96,21.16c0.06,0.02-0.17,3.78-0.91,3.63c-0.19-0.04,0.37-2,0.4-2.12C78.42,22.48,78.67,21.05,78.96,21.16z M78.3,19.95
				c0.37,0.22-0.81,4.24-0.95,4.72c-0.25,0.86-0.44,1.97-0.92,2.75c-0.15,0.24-1.13,1.38-1.06,1.08
				C75.5,27.88,78.62,20.28,78.3,19.95z M74.73,20.79c-0.12,0.35-0.29,0.39-0.49,0.12C74.37,20.46,74.53,20.42,74.73,20.79z
				 M74.31,18.7c0.22,0.05,0.24,0.17,0.06,0.37C74.15,19.02,74.13,18.9,74.31,18.7z"/>
		</g>
		<g>
			
				<linearGradient id="SVGID_00000081637160358027625610000004208957153750364061_" gradientUnits="userSpaceOnUse" x1="60.3218" y1="115.4961" x2="61.6835" y2="10.1344">
				<stop  offset="0" style="stop-color:#005175"/>
				<stop  offset="1" style="stop-color:#6AC3CE"/>
			</linearGradient>
			<path style="fill:url(#SVGID_00000081637160358027625610000004208957153750364061_);" d="M61.17,64.21
				c-0.41,1.38-0.68,2.8-1.1,4.17c0.07-0.18,0.84-2.16,1.78-4.52C61.69,64.07,61.44,64.26,61.17,64.21z"/>
		</g>
		<g>
			
				<linearGradient id="SVGID_00000127016793043126178510000010587084289838964402_" gradientUnits="userSpaceOnUse" x1="42.7707" y1="115.2693" x2="44.1324" y2="9.9076">
				<stop  offset="0" style="stop-color:#005175"/>
				<stop  offset="1" style="stop-color:#6AC3CE"/>
			</linearGradient>
			<path style="fill:url(#SVGID_00000127016793043126178510000010587084289838964402_);" d="M42.75,87.06
				c0.23,0.29,0.46,0.58,0.7,0.86c0.02,0.01,0.04,0.02,0.06,0.04C43.26,87.66,43,87.36,42.75,87.06z"/>
		</g>
		<g>
			
				<linearGradient id="SVGID_00000118360959506735059590000004000633509340859569_" gradientUnits="userSpaceOnUse" x1="55.4442" y1="115.4331" x2="56.8059" y2="10.0714">
				<stop  offset="0" style="stop-color:#005175"/>
				<stop  offset="1" style="stop-color:#6AC3CE"/>
			</linearGradient>
			<path style="fill:url(#SVGID_00000118360959506735059590000004000633509340859569_);" d="M55.65,55.66
				c0.34-2.42,0.59-4.84,0.91-7.25c0.12-0.96,0.24-1.92,0.35-2.88C56.47,48.9,56.02,52.28,55.65,55.66z"/>
		</g>
		<g>
			
				<linearGradient id="SVGID_00000155828033216205647070000003037987344744926899_" gradientUnits="userSpaceOnUse" x1="56.6468" y1="115.4486" x2="58.0085" y2="10.0869">
				<stop  offset="0" style="stop-color:#005175"/>
				<stop  offset="1" style="stop-color:#6AC3CE"/>
			</linearGradient>
			<path style="fill:url(#SVGID_00000155828033216205647070000003037987344744926899_);" d="M56.91,45.53
				c0.52-3.94,1.04-7.88,1.43-11.83C57.86,37.64,57.39,41.59,56.91,45.53z"/>
		</g>
		<g>
			
				<linearGradient id="SVGID_00000140701242043256666160000016365228438928293270_" gradientUnits="userSpaceOnUse" x1="57.7506" y1="115.4629" x2="59.1123" y2="10.1012">
				<stop  offset="0" style="stop-color:#005175"/>
				<stop  offset="1" style="stop-color:#6AC3CE"/>
			</linearGradient>
			<path style="fill:url(#SVGID_00000140701242043256666160000016365228438928293270_);" d="M58.94,25.28
				c-0.11,2.81-0.32,5.62-0.6,8.41c0.34-2.78,0.68-5.57,1.04-8.35C59.23,25.33,59.08,25.3,58.94,25.28z"/>
		</g>
		<g>
			
				<linearGradient id="SVGID_00000118367450178893571190000001077789092524519062_" gradientUnits="userSpaceOnUse" x1="68.5261" y1="115.6021" x2="69.8878" y2="10.2404">
				<stop  offset="0" style="stop-color:#005175"/>
				<stop  offset="1" style="stop-color:#6AC3CE"/>
			</linearGradient>
			<path style="fill:url(#SVGID_00000118367450178893571190000001077789092524519062_);" d="M69.28,28.15
				c0.79-3.89,1.49-7.8,2.04-11.72c-0.16-0.03-0.25-0.05-0.25-0.05s-0.37-1.2-1.79-2.24c-0.03,2.31-0.08,4.66-0.27,6.96
				c-0.16,2.19-0.47,4.38-0.87,6.54C68.58,27.8,68.9,27.92,69.28,28.15z"/>
		</g>
		<g>
			
				<linearGradient id="SVGID_00000080925253264166982580000009873570327565746617_" gradientUnits="userSpaceOnUse" x1="60.6744" y1="115.5007" x2="62.0361" y2="10.139">
				<stop  offset="0" style="stop-color:#005175"/>
				<stop  offset="1" style="stop-color:#6AC3CE"/>
			</linearGradient>
			<path style="fill:url(#SVGID_00000080925253264166982580000009873570327565746617_);" d="M59.83,25.01
				c0.17,0.04,1.22,0.34,1.09,0.62c-0.14,0.32-0.91-0.01-1.13-0.12c-0.32,4.87-0.92,9.69-1.33,14.54c1.15-2.26,1.16,1.99-0.02,0.3
				c-0.71,9.21-1.77,18.63-3.3,27.75c-0.27,1.59-0.65,3.15-0.92,4.74c0.29-0.05,0.53,0.03,0.71,0.24c0.17-0.73,0.39-1.46,0.58-2.19
				c-0.07-0.03-0.15-0.05-0.22-0.08c-0.05,0.03-0.11,0.05-0.16,0.08c0.05-0.03,0.1-0.06,0.15-0.09v0c0.06-0.19,0.17-0.28,0.33-0.27
				c0.08-0.3,0.17-0.59,0.25-0.89c-0.37,0.49-0.56-0.37-0.58-0.55c0.19-0.17,0.25-0.39,0.24-0.63c-0.01-0.01-0.01-0.02-0.02-0.03
				c0.17,0.14,0.34,0.27,0.52,0.39c-0.02,0.12-0.03,0.25-0.05,0.37c0.45-1.76,0.83-3.54,1.23-5.31c-0.07-0.13-0.07-0.27-0.05-0.42
				c-0.01,0-0.01,0-0.02,0l-0.03-0.06l0.05,0.04c0,0.01,0,0.01,0,0.02c0.05-0.01,0.1-0.01,0.15,0c0.12-0.55,2.63-12.83,2.88-12.76
				c0.54,0.13-2.4,12.55-2.52,13.07c0.03,0.11,0,0.22-0.08,0.33c-0.06,0.25-0.12,0.49-0.18,0.75c0.09,0.1,0.16,0.21,0.21,0.34
				c-0.09,0-0.19-0.01-0.29-0.01c-0.44,1.83-0.88,3.64-1.41,5.45c0.12,0.13,0.09,0.24-0.09,0.33c-0.56,2-1.03,4.03-1.65,6.01
				c0.03,0,0.07,0.01,0.1,0.02c-0.04-0.13,0.3-0.36,0.37-0.01c-0.03,0.03-0.06,0.06-0.09,0.09c0.33,0.15,0.61,0.22,0.91,0.4
				c1.42-3.65,2.51-7.34,3.76-11.05c-0.18,0-0.36,0.01-0.53,0.01c0.02-0.16-0.5-2.59,0.21-2.45c1.11,0.21,0.12,1.11,0.09,1.36
				c0.15,0.16,0.3,0.32,0.44,0.48c4.04-11.66,5.92-23.91,9.34-35.73c-0.25,0.07-0.98-0.47-1.24-0.57c-0.03,0.07-0.3,0.71-0.42,0.67
				c-0.13-0.04,0.09-0.77,0.11-0.87c-1.11-0.37-0.99-1.36,0.1-0.53c0.07-0.34,0.19-0.66,0.28-0.99c-0.48-0.38-4.72-1.16-4.36-2.16
				c0.09-0.25,4.07,1.49,4.44,1.78c0.3-1.63,0.59-3.25,0.79-4.89c-0.11,0-0.22,0-0.3-0.03c-0.19,0.06-1.87,0.64-1.95,0.04
				c-0.05-0.35,0.69-0.2,0.83-0.35c0.54-0.01,0.68,0.11,1.12,0.31c0.1-0.06,0.2-0.08,0.31-0.06c0.39-2.85,0.43-5.66,0.43-8.54
				c-2.69-1.69-6.63-1.94-9.74-2.27c0.07,0.45,0.14,0.9,0.2,1.32C59.9,16.91,60.08,21.02,59.83,25.01z M56.85,58.93
				c-0.05-0.09-0.02-0.1,0.08-0.03C56.9,58.91,56.88,58.92,56.85,58.93z M58.23,49.56c0.01,0.04,0.05,0.08,0.04,0.1
				C58.22,49.75,57.93,49.56,58.23,49.56z M56.31,71.74c-0.07-0.06-0.06-0.12,0.02-0.16c0.02,0.03,0.03,0.06,0.05,0.09
				C56.36,71.69,56.33,71.71,56.31,71.74z M59.81,28.78c0.34,0,0.99,0.37,0.82,0.82C60.36,30.29,59.25,28.97,59.81,28.78z
				 M59.8,49.54c-0.64,0.1,0.08-1.08,0.41-0.34C60.18,49.44,59.99,49.51,59.8,49.54z M62.45,30.35c0.35-0.08,0.36,0.6,0.25,0.59
				C62.29,30.84,62.21,30.64,62.45,30.35z M62.85,36.78c0.22,0.05,0.24,0.17,0.06,0.37C62.69,37.1,62.67,36.97,62.85,36.78z
				 M63.26,38.86c-0.12,0.35-0.29,0.39-0.49,0.12C62.9,38.54,63.06,38.5,63.26,38.86z M66.13,18.9c0.12-0.43,0.69-0.49,1.08-0.42
				c0.06,0.61,0.36,0.14,0.39-0.04c0.09,0.01,0.17,0.02,0.26,0.03c0.03,0.22,0.15,0.38,0.33,0.49c0.09,0.22,0.14,0.45,0.1,0.69
				c-0.35,0.01-0.71-0.13-1.03,0.1C66.4,19.87,66.02,19.88,66.13,18.9z M65.6,23.44c-0.36-0.03-0.62-0.23-0.81-0.6
				c-0.07,0.19-0.13,0.37-0.2,0.56v0h0c-0.1,0.38-0.19,0.76-0.29,1.14c-0.48-0.26-0.65-0.65-0.51-1.19c0.17,0,0.33,0.01,0.5,0.01
				c0.06-0.25-0.01-0.49-0.09-0.72v0v0c-0.52-0.13-0.96-0.39-1.32-0.76c0.01-0.06,0.01-0.11,0.01-0.17c0.84-0.05,0.48,0.25,1.42,0.4
				C64.71,22.11,66.59,22.9,65.6,23.44z M63.41,14.47c-0.07,0.15-0.13,0.3-0.2,0.45c-0.09,0.08-0.19,0.16-0.28,0.24
				c0.23,0.28,0.36,2.71-0.04,2.32c-0.11-0.1-0.23-2.36-0.2-2.37c-0.16-0.14-0.32-0.28-0.48-0.42
				C62.6,14.03,62.68,14.01,63.41,14.47z M62.87,23.37c-0.2-0.1-0.24-0.29-0.24-0.49C62.8,22.99,62.86,23.17,62.87,23.37z
				 M62.34,24.76c0.13-0.09,0.25-0.17,0.38-0.26c0.55,0.07,0.12,0.74-0.11,0.84c-0.16,0-0.33-0.01-0.49-0.01
				C62.18,25.14,62.25,24.94,62.34,24.76z M62.6,25.57L62.6,25.57c0.17,0,0.33,0,0.5,0c-0.34,0.93-1.01,1.25-1,0
				C62.27,25.58,62.44,25.57,62.6,25.57z M61.49,21.17c1.11,0.18-2.34,30.27-2.55,30.23c-0.29-0.05,1.55-17.44,1.67-18.86
				c-0.37,0.22-0.63-0.32-0.71-0.54c0,0,0,0,0,0v0l0,0v0c0.23-0.15,0.46-0.31,0.69-0.46c0.05,0.01,0.08,0.04,0.11,0.07
				c0.23-2.01,0.15-4.03,0.35-6.04C61.06,25.31,61.29,21.13,61.49,21.17z M60.15,15.38c-0.02-0.28-0.55-3.3-0.02-3.37
				c0.55-0.07,0.61,9.46,0.51,10.62c0.14,0.02,0.26,0.07,0.33,0.23c-0.19,0.13-0.31,0.2-0.38,0.2c-0.01,0.12-0.05,1.23-0.29,1.19
				c-0.07-0.01,0.04-7-0.04-7.77c-0.17,0.04-0.34,0.03-0.52-0.03c0.08-0.44,0.21-0.77,0.4-1.05C60.15,15.39,60.15,15.39,60.15,15.38
				z"/>
		</g>
		<g>
			
				<linearGradient id="SVGID_00000175289178826252078750000001143473437809601963_" gradientUnits="userSpaceOnUse" x1="53.6277" y1="115.4096" x2="54.9894" y2="10.0479">
				<stop  offset="0" style="stop-color:#005175"/>
				<stop  offset="1" style="stop-color:#6AC3CE"/>
			</linearGradient>
			<path style="fill:url(#SVGID_00000175289178826252078750000001143473437809601963_);" d="M53.54,76.73
				c0.15,0.11,0.24,0.09,0.41,0.11c0.3-0.98,0.59-1.97,0.81-2.97c-0.04,0.09-0.07,0.18-0.11,0.28c-0.22-0.02-0.47,0.18-0.67,0.13
				C53.84,75.1,53.7,75.92,53.54,76.73z"/>
		</g>
		<g>
			
				<linearGradient id="SVGID_00000049933514071244631970000009461512450086563729_" gradientUnits="userSpaceOnUse" x1="77.6757" y1="115.7204" x2="79.0374" y2="10.3587">
				<stop  offset="0" style="stop-color:#005175"/>
				<stop  offset="1" style="stop-color:#6AC3CE"/>
			</linearGradient>
			<path style="fill:url(#SVGID_00000049933514071244631970000009461512450086563729_);" d="M78.38,66.96
				c0-0.02-0.01-0.04-0.01-0.05c-0.05,0.06-0.1,0.11-0.14,0.18C78.28,67.04,78.33,67,78.38,66.96z"/>
		</g>
		<g>
			
				<linearGradient id="SVGID_00000059272255223534611410000000792580114771205810_" gradientUnits="userSpaceOnUse" x1="88.078" y1="115.8548" x2="89.4397" y2="10.4931">
				<stop  offset="0" style="stop-color:#005175"/>
				<stop  offset="1" style="stop-color:#6AC3CE"/>
			</linearGradient>
			<path style="fill:url(#SVGID_00000059272255223534611410000000792580114771205810_);" d="M89,47.78
				c-0.03,0.06-0.06,0.11-0.1,0.17c0.04-0.03,0.07-0.08,0.1-0.13C89.01,47.82,89.01,47.8,89,47.78z"/>
		</g>
		<g>
			
				<linearGradient id="SVGID_00000172437994504697948770000004146088467936009641_" gradientUnits="userSpaceOnUse" x1="89.1441" y1="115.8686" x2="90.5058" y2="10.5069">
				<stop  offset="0" style="stop-color:#005175"/>
				<stop  offset="1" style="stop-color:#6AC3CE"/>
			</linearGradient>
			<path style="fill:url(#SVGID_00000172437994504697948770000004146088467936009641_);" d="M91.12,43.67
				c-0.7,1.32-1.4,2.62-2.21,3.88c0.05,0.09,0.09,0.18,0.09,0.24c1.07-1.91,1.95-3.5,2.19-3.97C91.17,43.76,91.15,43.72,91.12,43.67
				z"/>
		</g>
		<g>
			
				<linearGradient id="SVGID_00000004538428146648711110000004413507127703572617_" gradientUnits="userSpaceOnUse" x1="80.1914" y1="115.7529" x2="81.5531" y2="10.3912">
				<stop  offset="0" style="stop-color:#005175"/>
				<stop  offset="1" style="stop-color:#6AC3CE"/>
			</linearGradient>
			<path style="fill:url(#SVGID_00000004538428146648711110000004413507127703572617_);" d="M77.12,68.08
				c-0.69,0.53,1.05-1.39,1.21-1.57c-0.06-0.42-0.19-0.82-0.46-1.17c0.25-0.06,0.5-0.12,0.75-0.18c0.18,0.15,0.37,0.31,0.55,0.46v0
				c0.05-0.01,0.1-0.03,0.15-0.04c0.28-0.27,3.39-4.12,3.95-3.51c0.14,0.15-3.3,3.21-3.36,3.26c0.07,0.04,0.14,0.07,0.21,0.11
				c0.02,0.04,0.04,0.07,0.06,0.11c4.23-3.27,8.48-6.22,11.98-10.35c-0.11-0.37,0-0.75,0.37-0.47c0.18-0.23,0.35-0.46,0.52-0.69
				c-0.25-0.21-0.39-0.46-0.51-0.77c-0.16,0.24-6.42,8.41-7.13,7.45c0.23,0.32,8.3-9.68,8.68-10.34c-0.03-0.38-0.01-0.73,0.01-1.12
				c-0.05-0.08-0.1-0.16-0.15-0.25c0.03-0.02,0.06-0.05,0.09-0.07c-0.52-1.89-1.13-3.53-2.65-4.91c-0.22,0.41-0.43,0.82-0.64,1.24
				c0.08-0.02,0.16-0.02,0.24-0.03c0.02,0.04,0.04,0.09,0.05,0.13c1.24-0.15,2.67,4.52,2.52,5.48c-0.15,0.92-0.69-1.88-0.83-2.22
				c-0.39-0.97-1.27-1.68-1.72-2.59c-0.03,0.16-0.06,0.33-0.03,0.49c-0.33-0.11-0.51-0.21-0.61-0.36
				c-0.29,0.73-5.47,10.74-6.17,10.24c-0.03-0.02,2.65-4.76,4.72-8.45c-0.08,0.08-0.19,0.11-0.33,0.1c-2.3,3.47-4.82,6.72-7.26,10.1
				c0.01,0.01,0.01,0.02,0.02,0.03c-0.02,0-0.04,0.01-0.05,0.01c-0.12,0.17-0.24,0.34-0.36,0.51c0.29,0.45-0.26,1.72-0.8,1.17
				c-3.71,5.38-8.04,11-12.45,15.82c0.26-0.27,7.32-8.17,7.66-7.85c0.27,0.26-5.68,6.35-5.89,6.57
				C71.89,72.19,74.73,70.35,77.12,68.08z M91.2,53.78c-0.26,0-0.48,0.11-0.71,0.23c0.01-0.32,0.01-0.64,0.02-0.95
				c0.08-0.02,0.16-0.04,0.24-0.04c0.22,0.22,0.38,0.48,0.46,0.77C91.21,53.78,91.2,53.78,91.2,53.78z M92.77,51.38
				c-0.85,1.1-0.71,0.74-1.81,1C91.33,51.62,91.96,51.32,92.77,51.38z M90.44,47.33c0.08-0.3,0.26-0.48,0.56-0.54
				c0.01,0.17,0.03,0.34,0.04,0.51l0,0C90.98,47.4,90.26,48.03,90.44,47.33z M88.76,50.28L88.76,50.28
				c-0.49,1.11-0.5,0.13-0.55,0.15C88.39,50.37,88.58,50.33,88.76,50.28z M88.04,52.69c0.01,0,0.04,0.05,0.07,0.08
				c-0.21,0.09-0.15,0.12-0.25,0C87.92,52.74,87.98,52.71,88.04,52.69z M87.61,56.61c0.2,0.01,0.29,0.11,0.27,0.3
				c-0.24,0.3-0.46,0.25-0.68-0.15C87.29,56.56,87.45,56.58,87.61,56.61z M87.3,58.41c-0.01-0.15,0.01-0.28,0.07-0.39
				C87.31,58.13,87.29,58.26,87.3,58.41c-0.12,0.1-0.26,0.16-0.4,0.2C87.04,58.57,87.17,58.51,87.3,58.41z"/>
		</g>
		<g>
			
				<linearGradient id="SVGID_00000013192357895012864770000011784993523503884987_" gradientUnits="userSpaceOnUse" x1="75.7527" y1="115.6955" x2="77.1144" y2="10.3338">
				<stop  offset="0" style="stop-color:#005175"/>
				<stop  offset="1" style="stop-color:#6AC3CE"/>
			</linearGradient>
			<path style="fill:url(#SVGID_00000013192357895012864770000011784993523503884987_);" d="M78,48.78c-1.4,2.5-2.62,5.1-4,7.61
				c1.71-2.93,3.52-5.76,5.15-8.75c-0.19,0.08-0.39,0.13-0.6,0.14C78.34,48.1,78.16,48.43,78,48.78z"/>
		</g>
		<g>
			
				<linearGradient id="SVGID_00000169524497164549968220000017715961659110073787_" gradientUnits="userSpaceOnUse" x1="70.2977" y1="115.625" x2="71.6594" y2="10.2633">
				<stop  offset="0" style="stop-color:#005175"/>
				<stop  offset="1" style="stop-color:#6AC3CE"/>
			</linearGradient>
			<path style="fill:url(#SVGID_00000169524497164549968220000017715961659110073787_);" d="M78.78,27.6
				c-3.36,10.82-7.12,21.29-11.95,31.56c0.07,0.06,0.11,0.14,0.11,0.25c-0.05,0.24-0.16,0.32-0.35,0.27
				c-2.86,6-6.12,11.83-9.08,17.78c0.01,0.01,0.02,0.02,0.03,0.03c0.55-0.13,1.15-0.11,1.68,0.04c0.63-1.15,9.93-18.17,9.85-18.22
				c0.95,0.49-8.98,17.28-9.53,18.23c0.34,0.17,0.69,0.28,1.05,0.42c3.39-4.68,6.12-9.78,9.35-14.57c-0.48-0.32-0.73,0.51-0.62-0.52
				c0.05-0.44,1.2-1.12,1.62-0.99c0.54-0.86,0.96-1.78,1.44-2.67c-0.11,0.17-0.72,1.14-0.93,1.01c-0.04-0.02,1.29-2.51,2.79-5.27
				c-0.05-0.01-0.12-0.07-0.06-0.12c0.02-0.02,0.07,0,0.11,0c0,0.01,0,0.02,0.01,0.02c1.63-3.01,3.44-6.31,3.88-7.05
				c-0.08,0-0.17-0.01-0.25-0.02c0-0.58,0-1.16,0-1.73l0,0c0.43,0,0.86-0.02,1.29-0.08c0.09-0.15,0.39-0.77,0.55-0.67
				c0.14,0.09-0.16,0.65-0.21,0.75c0.14,0.04,0.29,0.08,0.43,0.12c1.6-2.97,3.29-5.88,4.63-8.97c-0.07-0.11-0.14-0.23-0.22-0.33
				c-0.05,0.09-0.36,0.64-0.52,0.58c-0.13-0.05,0.19-0.86,0.24-1c-0.54-0.8-1.16-1.36-1.75-2.1c-0.14,0.34-0.27,0.67-0.39,1.01
				c0.31,0.25,0.89,0.65,1,1.06c0.15,0.1,0.26,0.28,0.25,0.51c-0.88,1.54-2.06,0.08-0.83-0.5c-0.14-0.27-0.36-0.51-0.58-0.73
				c-0.37,0.78-6.73,13.76-7.4,13.33c-0.13-0.09,6.8-12.81,7.11-13.44c-2.28-1.07-0.56-2.09,0.19-0.42
				c0.14-0.34,0.27-0.68,0.42-1.01c-0.51-0.39-1.1-0.69-1.68-0.97c-0.89,2.22-1.79,4.46-3.09,6.48c-0.05,0.08-0.62,0.95-0.78,0.86
				c-0.11-0.07,0.28-0.75,0.32-0.83c0-0.08,0.03-0.17,0.02-0.25c0.02,0.02,0.05,0.03,0.07,0.05c1.02-2.16,2.16-4.25,3.12-6.46
				c-0.42-0.17-0.97-0.34-1.42-0.46c-0.04,0.08-0.37,0.68-0.53,0.61c-0.12-0.05,0.12-0.66,0.15-0.73c-0.11-0.04-0.47-0.2-0.48-0.35
				c-0.01-0.17,0.54-0.13,0.63-0.14c1.36-3.01,1.91-6.38,2.62-9.58c-0.17-0.05-0.34-0.09-0.49-0.13c-0.62,1.63-1.16,3.27-1.68,4.93
				C79,27.27,78.93,27.6,78.78,27.6z M61.64,70.5c0.23-0.19,0.37-0.16,0.43,0.08C61.85,70.74,61.71,70.71,61.64,70.5z M62.94,73.34
				c0.19-0.36,0.37-0.71,0.88-0.5C63.71,73.32,63.36,73.4,62.94,73.34z M71.53,54.39c-0.04,0.05-0.08,0.09-0.12,0.13
				c-0.11-0.08-0.12-0.16-0.03-0.23C71.42,54.32,71.47,54.35,71.53,54.39L71.53,54.39L71.53,54.39z"/>
		</g>
		<g>
			
				<linearGradient id="SVGID_00000113345550104389690360000001572196697794703549_" gradientUnits="userSpaceOnUse" x1="73.4634" y1="115.6659" x2="74.8251" y2="10.3042">
				<stop  offset="0" style="stop-color:#005175"/>
				<stop  offset="1" style="stop-color:#6AC3CE"/>
			</linearGradient>
			<path style="fill:url(#SVGID_00000113345550104389690360000001572196697794703549_);" d="M74.27,54.84
				c-0.02,0.03-0.04,0.07-0.06,0.1C74.26,54.95,74.3,54.93,74.27,54.84z"/>
		</g>
		<g>
			
				<linearGradient id="SVGID_00000099652113047900100150000017248664303851996607_" gradientUnits="userSpaceOnUse" x1="80.2972" y1="115.7543" x2="81.6589" y2="10.3926">
				<stop  offset="0" style="stop-color:#005175"/>
				<stop  offset="1" style="stop-color:#6AC3CE"/>
			</linearGradient>
			<path style="fill:url(#SVGID_00000099652113047900100150000017248664303851996607_);" d="M80.36,32.44
				c1.42-2.93,2.31-6.07,3.53-9.09c-0.83-0.38-1.7-0.67-2.46-0.89c-0.03,0.14-0.07,0.28-0.11,0.42c-0.89,2.83-0.8,6.55-2.35,9.11
				C79.43,32.16,79.93,32.24,80.36,32.44z"/>
		</g>
		<g>
			
				<linearGradient id="SVGID_00000118368660511398569180000010176760300021416833_" gradientUnits="userSpaceOnUse" x1="34.3912" y1="115.161" x2="35.7529" y2="9.7993">
				<stop  offset="0" style="stop-color:#005175"/>
				<stop  offset="1" style="stop-color:#6AC3CE"/>
			</linearGradient>
			<path style="fill:url(#SVGID_00000118368660511398569180000010176760300021416833_);" d="M34.35,77.87
				c0.08,0.09,0.13,0.19,0.15,0.3c0.29,0.31,0.58,0.62,0.87,0.93C35.05,78.67,34.71,78.26,34.35,77.87z"/>
		</g>
		<g>
			
				<linearGradient id="SVGID_00000182503715531999851710000006901167376126190213_" gradientUnits="userSpaceOnUse" x1="48.326" y1="115.3411" x2="49.6877" y2="9.9794">
				<stop  offset="0" style="stop-color:#005175"/>
				<stop  offset="1" style="stop-color:#6AC3CE"/>
			</linearGradient>
			<path style="fill:url(#SVGID_00000182503715531999851710000006901167376126190213_);" d="M49.15,24.49
				c0.01,0.23,0.01,0.46,0.02,0.7c0.25-0.08,0.41-0.18,0.68-0.14c0-0.18,0.01-0.36,0.01-0.53c-0.09-0.01-0.19-0.01-0.29-0.01
				C49.43,24.5,49.29,24.49,49.15,24.49z"/>
		</g>
		<g>
			
				<linearGradient id="SVGID_00000044150889443652721750000014236716009799524520_" gradientUnits="userSpaceOnUse" x1="42.0386" y1="115.2598" x2="43.4003" y2="9.8981">
				<stop  offset="0" style="stop-color:#005175"/>
				<stop  offset="1" style="stop-color:#6AC3CE"/>
			</linearGradient>
			<path style="fill:url(#SVGID_00000044150889443652721750000014236716009799524520_);" d="M38.48,80.44
				c-0.12,0.1-0.21,0.22-0.29,0.35c2.45,2.75,5.08,8.2,8.47,9.78c-2.73-3.4-5.6-6.61-8.13-10.17
				C38.51,80.41,38.49,80.43,38.48,80.44z"/>
		</g>
		<g>
			
				<linearGradient id="SVGID_00000004548441627933709340000010915993724758202030_" gradientUnits="userSpaceOnUse" x1="95.2486" y1="115.9475" x2="96.6103" y2="10.5858">
				<stop  offset="0" style="stop-color:#005175"/>
				<stop  offset="1" style="stop-color:#6AC3CE"/>
			</linearGradient>
			<path style="fill:url(#SVGID_00000004548441627933709340000010915993724758202030_);" d="M98.51,48.4
				c-0.01-0.94-0.24-1.76-0.44-2.3c-0.46,0.77-0.86,1.59-1.29,2.37c0.25,0.16,0.4,0.44,0.47,0.79c-0.31,0.11-0.57,0.01-0.81-0.19
				c-0.89,1.58-1.8,3.18-2.78,4.7c0.16,0.21,0.31,0.45,0.45,0.67C95.49,52.56,96.77,49.96,98.51,48.4z"/>
		</g>
		<g>
			
				<linearGradient id="SVGID_00000127042625061730428750000003933608672957537207_" gradientUnits="userSpaceOnUse" x1="92.4716" y1="115.9116" x2="93.8333" y2="10.5499">
				<stop  offset="0" style="stop-color:#005175"/>
				<stop  offset="1" style="stop-color:#6AC3CE"/>
			</linearGradient>
			<path style="fill:url(#SVGID_00000127042625061730428750000003933608672957537207_);" d="M93.11,55.88
				c0.25-0.32,0.49-0.62,0.7-0.97c-0.11-0.13-0.22-0.25-0.33-0.39c-0.06-0.07-0.12-0.14-0.18-0.21c-0.19,0.27-0.39,0.54-0.58,0.8
				C92.79,55.36,93.01,55.62,93.11,55.88z"/>
		</g>
		<g>
			
				<linearGradient id="SVGID_00000036941005420187658680000016701899990454210980_" gradientUnits="userSpaceOnUse" x1="94.5767" y1="115.9388" x2="95.9384" y2="10.5771">
				<stop  offset="0" style="stop-color:#005175"/>
				<stop  offset="1" style="stop-color:#6AC3CE"/>
			</linearGradient>
			<path style="fill:url(#SVGID_00000036941005420187658680000016701899990454210980_);" d="M94.17,50.8
				c-0.38,0.74-0.89,1.41-1.38,2.08c0.26,0.2,0.39,0.41,0.62,0.64c1.03-1.46,2.07-2.98,2.92-4.55c-0.17-0.2-0.15-0.42-0.08-0.66
				c0.14,0.01,0.27,0.04,0.38,0.08c0.43-0.84,0.84-1.7,1.36-2.5c-0.12-0.31-0.22-0.49-0.22-0.49s0.25-0.37,0.33-1.21
				c-0.95,1.61-1.81,3.33-2.88,4.87c0.15,0.04,0.3,0.07,0.45,0.11c-0.15-0.04-0.3-0.07-0.45-0.11c-0.25,0.36-0.47,0.73-0.7,1.1
				C94.54,50.29,94.45,51.25,94.17,50.8z"/>
		</g>
		<g>
			
				<linearGradient id="SVGID_00000005964433107744267680000002163499475813856138_" gradientUnits="userSpaceOnUse" x1="51.1414" y1="115.3774" x2="52.5031" y2="10.0157">
				<stop  offset="0" style="stop-color:#005175"/>
				<stop  offset="1" style="stop-color:#6AC3CE"/>
			</linearGradient>
			<path style="fill:url(#SVGID_00000005964433107744267680000002163499475813856138_);" d="M50.87,90.78
				c-0.04,0.04-0.09,0.07-0.13,0.11c0.49-0.2,0.97-0.46,1.45-0.71c-0.02-0.05-0.03-0.11-0.04-0.17c-0.05-0.08-0.1-0.17-0.15-0.25
				C51.81,89.95,51.16,90.77,50.87,90.78z"/>
		</g>
		<g>
			
				<linearGradient id="SVGID_00000119112553656224001150000004992035910411583410_" gradientUnits="userSpaceOnUse" x1="55.4012" y1="115.4325" x2="56.7629" y2="10.0708">
				<stop  offset="0" style="stop-color:#005175"/>
				<stop  offset="1" style="stop-color:#6AC3CE"/>
			</linearGradient>
			<path style="fill:url(#SVGID_00000119112553656224001150000004992035910411583410_);" d="M59.55,83.35
				c-0.17,0.13-2.07,1.68-2.19,1.49c-0.02-0.04,0-0.1,0.06-0.19c-1.76,1.75-3.56,3.46-5.42,5.11c0.05,0.08,0.1,0.17,0.15,0.25
				c0.08,0.01,0.16,0.03,0.23,0.06C55.02,88.71,57.6,85.58,59.55,83.35z"/>
		</g>
		<g>
			
				<linearGradient id="SVGID_00000001644252653569387380000003122909113513875852_" gradientUnits="userSpaceOnUse" x1="59.6425" y1="115.4873" x2="61.0042" y2="10.1256">
				<stop  offset="0" style="stop-color:#005175"/>
				<stop  offset="1" style="stop-color:#6AC3CE"/>
			</linearGradient>
			<path style="fill:url(#SVGID_00000001644252653569387380000003122909113513875852_);" d="M60.78,81.82
				c-0.15,0.09-0.3,0.13-0.47,0.11c-0.08-0.17,0.81-0.65,0.92-0.72c0.33-0.45,0.67-0.9,1.04-1.31c-0.11-0.05-0.11-0.07-0.14-0.17
				c-1.38,1.51-2.8,3-4.24,4.45C58.79,83.39,60.54,82.16,60.78,81.82z"/>
		</g>
		<g>
			
				<linearGradient id="SVGID_00000110458351457672625880000017186759192799177125_" gradientUnits="userSpaceOnUse" x1="57.2512" y1="115.4564" x2="58.6129" y2="10.0947">
				<stop  offset="0" style="stop-color:#005175"/>
				<stop  offset="1" style="stop-color:#6AC3CE"/>
			</linearGradient>
			<path style="fill:url(#SVGID_00000110458351457672625880000017186759192799177125_);" d="M57.42,84.65
				c0.15-0.15,0.31-0.31,0.46-0.46C57.67,84.37,57.51,84.53,57.42,84.65z"/>
		</g>
		<g>
			
				<linearGradient id="SVGID_00000166669132305136381940000014637965536709142144_" gradientUnits="userSpaceOnUse" x1="74.2836" y1="115.6765" x2="75.6453" y2="10.3148">
				<stop  offset="0" style="stop-color:#005175"/>
				<stop  offset="1" style="stop-color:#6AC3CE"/>
			</linearGradient>
			<path style="fill:url(#SVGID_00000166669132305136381940000014637965536709142144_);" d="M79.22,67.71
				c-3.1,2.51-6.07,5.06-8.96,7.82c0.24-0.15,0.47-0.3,0.69-0.46c-0.15-0.11,7.94-6.78,8.48-7.23
				C79.36,67.86,79.29,67.79,79.22,67.71z"/>
		</g>
		<g>
			
				<linearGradient id="SVGID_00000040562404153606274240000011944240421598374545_" gradientUnits="userSpaceOnUse" x1="83.3685" y1="115.794" x2="84.7302" y2="10.4323">
				<stop  offset="0" style="stop-color:#005175"/>
				<stop  offset="1" style="stop-color:#6AC3CE"/>
			</linearGradient>
			<path style="fill:url(#SVGID_00000040562404153606274240000011944240421598374545_);" d="M93.28,56.36
				c0.26,0.74,0.39,2.51-0.15,3.13c-0.23,0.26-0.01-2.27-0.27-2.82c-0.2,0.09-0.15-0.09-0.1-0.2c-0.16-0.29-0.3-0.56-0.47-0.83
				c-3.57,4.48-7.84,7.82-12.27,11.42c-0.01,0.13-0.02,0.25-0.05,0.37c0.26-0.2,1.84-1.13,2-0.87c0.04,0.06-7.78,5.78-8.79,6.82
				c0.31-0.24,5.83-4.75,6.14-4.35c0.2,0.26-5.94,4.72-6.21,4.92c8.76-5.3,17.32-11.87,21.8-15.55c-0.51-0.8-0.24-2.14-0.81-3.07
				C93.85,55.72,93.59,56.02,93.28,56.36z M90.52,58.69c-0.09,0.02-0.18,0.04-0.28,0.06C90.32,58.65,90.41,58.63,90.52,58.69z
				 M81.66,66.18c0.13-0.16,0.27-0.06,0.33,0.07C81.92,66.32,81.48,66.39,81.66,66.18z M84.03,65.33c-0.04-0.08-0.01-0.16,0.08-0.23
				c0.06-0.05,0.54-0.28,0.58-0.09C84.77,65.38,84.26,65.45,84.03,65.33z M90.93,59.7c0.15,0,0.17,0.07,0.06,0.22
				c-0.09,0.62-0.08,1.23-0.73,1.54c-0.22-0.53-0.29-1.08-0.26-1.63c-0.5,0.56-1.07,1.07-1.56,1.66c0.15,0.46,0.52,0.64,0.98,0.76
				l0,0c-0.47,0.6-1,0.34-1.68,0.08c0.02-0.05,0.03-0.1,0.05-0.15c-0.15,0.14-1.73,1.1-1.52,0.76c0.28-0.48,5.05-4.65,5-4.7
				c0.27,0.27-0.81,1.04-0.94,1.2C90.56,59.44,90.77,59.47,90.93,59.7z M92.04,56.81c-0.04-0.04-0.08-0.09-0.12-0.13v0
				C92.13,56.54,92.17,56.61,92.04,56.81z"/>
		</g>
		<g>
			
				<linearGradient id="SVGID_00000137123650992100706740000006086872875039387544_" gradientUnits="userSpaceOnUse" x1="95.8897" y1="115.9558" x2="97.2514" y2="10.5941">
				<stop  offset="0" style="stop-color:#005175"/>
				<stop  offset="1" style="stop-color:#6AC3CE"/>
			</linearGradient>
			<path style="fill:url(#SVGID_00000137123650992100706740000006086872875039387544_);" d="M98.81,53.83
				c0.02,0,0.04,0.01,0.06,0.01c0.48-1.54-0.5-3.3-0.37-4.91c-1.32,1.99-2.78,3.91-4.11,5.91c0.57,0.93,0.8,2.18,0.91,3.24
				c1.75-1.45,2.79-2.39,2.83-2.51c0.13-0.35,0.51-1.02,0.73-1.73C98.85,53.84,98.83,53.84,98.81,53.83
				c-0.18,0.16-0.37,0.31-0.55,0.46c-0.07-0.02-0.14-0.04-0.21-0.06c-0.08-0.13-0.16-0.25-0.24-0.38
				C98.17,53.39,98.45,53.34,98.81,53.83z"/>
		</g>
		<g>
			
				<linearGradient id="SVGID_00000084507676010491044970000008403865793744775610_" gradientUnits="userSpaceOnUse" x1="53.1663" y1="115.4036" x2="54.528" y2="10.0419">
				<stop  offset="0" style="stop-color:#005175"/>
				<stop  offset="1" style="stop-color:#6AC3CE"/>
			</linearGradient>
			<path style="fill:url(#SVGID_00000084507676010491044970000008403865793744775610_);" d="M52.69,85.01
				c1.2-2.3,1.78-4.74,2.66-7.17c-0.33,0.04-0.99-0.18-1.36-0.24c-0.79,2.44-1.3,4.97-2.12,7.4c0.15-0.03,0.28-0.12,0.41-0.27
				C52.53,84.66,52.67,84.75,52.69,85.01z"/>
		</g>
		<g>
			
				<linearGradient id="SVGID_00000049186167984836185160000003882896507363774374_" gradientUnits="userSpaceOnUse" x1="52.1072" y1="115.3899" x2="53.4689" y2="10.0282">
				<stop  offset="0" style="stop-color:#005175"/>
				<stop  offset="1" style="stop-color:#6AC3CE"/>
			</linearGradient>
			<path style="fill:url(#SVGID_00000049186167984836185160000003882896507363774374_);" d="M51.33,84.96c0.03,0,0.05,0,0.08,0.01
				c0.03,0.01,0.07,0.02,0.1,0.03c0.87-2.5,1.46-5.08,2.27-7.59c-0.02-0.02-0.04-0.04-0.06-0.06c-0.1-0.01-0.19-0.05-0.27-0.11
				C52.9,79.86,52.17,82.4,51.33,84.96z"/>
		</g>
		<g>
			
				<linearGradient id="SVGID_00000081624025478152450260000012334875212040924040_" gradientUnits="userSpaceOnUse" x1="50.5608" y1="115.3699" x2="51.9225" y2="10.0082">
				<stop  offset="0" style="stop-color:#005175"/>
				<stop  offset="1" style="stop-color:#6AC3CE"/>
			</linearGradient>
			<path style="fill:url(#SVGID_00000081624025478152450260000012334875212040924040_);" d="M51.3,87.03c-0.03,0-0.06,0-0.08,0
				c-0.07,0.23-1.25,4.03-1.42,3.94c-0.3-0.14,0.97-3.74,1.06-4.02c-0.06-0.03-0.12-0.06-0.18-0.11c-0.48,1.44-0.82,2.91-1.17,4.38
				c0.08-0.01,0.16-0.02,0.24-0.04c0.97-1.75,1.68-3.65,2.56-5.45C51.91,86.1,51.36,86.43,51.3,87.03z"/>
		</g>
		<g>
			
				<linearGradient id="SVGID_00000129919037943951265870000006808539813335805840_" gradientUnits="userSpaceOnUse" x1="6.7405" y1="114.8036" x2="8.1022" y2="9.4419">
				<stop  offset="0" style="stop-color:#005175"/>
				<stop  offset="1" style="stop-color:#6AC3CE"/>
			</linearGradient>
			<path style="fill:url(#SVGID_00000129919037943951265870000006808539813335805840_);" d="M9.89,60.48c0.01,0,0.01-0.01,0.02-0.01
				c-0.04-0.04-0.08-0.09-0.12-0.13c-1.43-1.66-3.25-3.06-4.76-4.67c0,0.08,0,0.16,0.01,0.24C6.5,57.52,8.15,59.17,9.89,60.48z"/>
		</g>
		<g>
			
				<linearGradient id="SVGID_00000082327558438128287690000007569596079612026270_" gradientUnits="userSpaceOnUse" x1="60.8423" y1="115.5028" x2="62.204" y2="10.1411">
				<stop  offset="0" style="stop-color:#005175"/>
				<stop  offset="1" style="stop-color:#6AC3CE"/>
			</linearGradient>
			<path style="fill:url(#SVGID_00000082327558438128287690000007569596079612026270_);" d="M68.07,82.66
				c-0.26,0.15-0.89,0.02-1.21,0.03c-0.13-0.31-0.57,1.33-0.54,1.42c-0.33,0.18-0.65,0.1-0.97-0.23c-0.14,0.09-1.95,0.81-2.07,0.76
				c-0.25-0.11,1.46-1.35,1.96-1.1c-0.02-0.16-0.03-0.31-0.04-0.47c-0.49,0.15-3.74,1.56-3.8,1.38c-0.12-0.35,3.36-1.59,3.79-1.77
				c0-0.32,0.02-0.64,0.04-0.96c-0.25,0.04-1.64,0.97-1.28,0.27c0.11-0.21,1.29-0.87,1.52-0.72c0.4-0.21,0.72-0.14,0.95,0.2
				c-0.06,0.3-0.17,0.6-0.04,0.84c0.18-0.03,1.84-0.3,1.7,0.31c0.01-0.01,0.03-0.02,0.04-0.03c-0.06-0.18-0.11-0.37-0.15-0.56
				c-0.14,0.05-0.21-0.03-0.37-0.28c0.11,0.01,0.21,0.03,0.32,0.04c-0.11-0.58-0.23-1.35-0.33-2.08c-0.05,0.08-1.55,1.04-1.53,0.41
				c0-0.16,1.32-0.76,1.49-0.71c-0.07-0.54-0.13-1.06-0.17-1.45c-4.38,3.81-9.37,7.27-13.4,11.43c2.16-0.57,4.52,0.82,6.7,0.86
				c2.29,0.04,4.63-0.57,6.61-1.71c0,0,0.24-0.33,0.32-0.98c-1.9,0.64-4,1.34-5.98,1.65c0.04-0.01-6.28,0.15-5.92-1.04
				c-0.11,0.36,6.54,0.63,6.75,0.59c1.77-0.32,3.38-1.36,5.19-1.51c0-0.18,0.01-0.35,0.01-0.53c-1.67,0.46-3.56,0.13-5.28,0.57
				c-0.24,0.06-5.44,1.39-4.74,0.16c-0.07,0.12,1.26-0.02,2.58-0.19c-0.01,0-0.02,0-0.03-0.01c0.31-0.72,0.36-0.74,1.23-0.57
				c-0.22,0.17-0.33,0.35-0.46,0.47c0.95-0.13,1.74-0.25,1.78-0.25c0-0.01,0-0.02,0.01-0.04c0.01,0.01,0.02,0.02,0.03,0.03
				c1.55-0.24,3.34-0.77,4.91-0.45c0.09-0.65,0.36-1.28,0.51-1.92c-1.99,0.37-3.91,0.65-5.86,1.22c-0.73,0.22-3.4,0.51-3.52,0.57
				c2.74-1.53,6.44-1.47,9.46-2.14c0.06-0.24,0.09-0.4,0.1-0.54C68.01,84.04,67.94,82.86,68.07,82.66z M62.72,85.88L62.72,85.88
				c0.01,0.23,0.01,0.46,0.02,0.69c-0.24,0.04-0.49,0.08-0.73,0.11C62.01,86.21,62.24,85.93,62.72,85.88z"/>
		</g>
		<g>
			
				<linearGradient id="SVGID_00000006694312015757295360000005155855690811962004_" gradientUnits="userSpaceOnUse" x1="60.2614" y1="115.4953" x2="61.6231" y2="10.1336">
				<stop  offset="0" style="stop-color:#005175"/>
				<stop  offset="1" style="stop-color:#6AC3CE"/>
			</linearGradient>
			<path style="fill:url(#SVGID_00000006694312015757295360000005155855690811962004_);" d="M61,87.16c-0.24,0.03-0.5,0.07-0.75,0.1
				C60.67,87.38,60.85,87.32,61,87.16z"/>
		</g>
		<g>
			
				<linearGradient id="SVGID_00000021829135168608943640000016841280971385552575_" gradientUnits="userSpaceOnUse" x1="53.2815" y1="115.4051" x2="54.6432" y2="10.0434">
				<stop  offset="0" style="stop-color:#005175"/>
				<stop  offset="1" style="stop-color:#6AC3CE"/>
			</linearGradient>
			<path style="fill:url(#SVGID_00000021829135168608943640000016841280971385552575_);" d="M53.67,89.5c0-0.05,0.01-0.08,0.03-0.12
				c-0.06,0.05-0.11,0.11-0.17,0.17C53.58,89.53,53.62,89.52,53.67,89.5z"/>
		</g>
		<g>
			
				<linearGradient id="SVGID_00000070802385496280904680000015257387293681623991_" gradientUnits="userSpaceOnUse" x1="55.6696" y1="115.436" x2="57.0313" y2="10.0743">
				<stop  offset="0" style="stop-color:#005175"/>
				<stop  offset="1" style="stop-color:#6AC3CE"/>
			</linearGradient>
			<path style="fill:url(#SVGID_00000070802385496280904680000015257387293681623991_);" d="M51.95,89.25
				c2.25-2.6,4.68-4.92,6.53-7.86c0.01-0.13,0.08-0.23,0.19-0.31c0.2-0.33,0.4-0.67,0.6-1.01c-0.29-0.16-0.4-0.47-0.4-0.9
				c0.23,0.17,0.44,0.32,0.65,0.47c0.26-0.45,0.52-0.9,0.82-1.33c-0.14-0.13-0.81-0.47-1.02-0.39c-1.2,2.05-2.6,4.02-3.9,6.01
				c0.27,0.15,0.37,0.31,0.23,0.41c-0.18,0.14-0.36,0.12-0.52,0.04c-1,1.58-2.16,3.1-3.29,4.6C51.9,89.06,51.94,89.15,51.95,89.25z"
				/>
		</g>
		<g>
			
				<linearGradient id="SVGID_00000098922682532357034060000012056956149073666459_" gradientUnits="userSpaceOnUse" x1="50.6586" y1="115.3712" x2="52.0203" y2="10.0095">
				<stop  offset="0" style="stop-color:#005175"/>
				<stop  offset="1" style="stop-color:#6AC3CE"/>
			</linearGradient>
			<path style="fill:url(#SVGID_00000098922682532357034060000012056956149073666459_);" d="M51.67,89.18
				c-0.01,0.01-0.02,0.02-0.03,0.03c-0.24,0.31-1.09,1.08-1.1,1.14c-0.12,0.2-0.24,0.4-0.36,0.6c0.52-0.51,1.1-0.98,1.59-1.52
				C51.73,89.36,51.7,89.27,51.67,89.18z"/>
		</g>
		<g>
			
				<linearGradient id="SVGID_00000052825887160260919060000005104439215786415761_" gradientUnits="userSpaceOnUse" x1="90.6545" y1="115.8881" x2="92.0162" y2="10.5264">
				<stop  offset="0" style="stop-color:#005175"/>
				<stop  offset="1" style="stop-color:#6AC3CE"/>
			</linearGradient>
			<path style="fill:url(#SVGID_00000052825887160260919060000005104439215786415761_);" d="M91.45,43.08
				c0.02,0.01,0.03,0.03,0.05,0.04c0.09-0.2,0.17-0.4,0.25-0.6C91.65,42.7,91.55,42.89,91.45,43.08L91.45,43.08z"/>
		</g>
	</g>
</g>
</svg>
